<?xml version="1.0" standalone="no"?>
<!DOCTYPE svg PUBLIC "-//W3C//DTD SVG 20010904//EN"
 "http://www.w3.org/TR/2001/REC-SVG-20010904/DTD/svg10.dtd">
<svg version="1.0" xmlns="http://www.w3.org/2000/svg"
 width="2000.000000pt" height="2000.000000pt" viewBox="0 0 2000.000000 2000.000000"
 preserveAspectRatio="xMidYMid meet">

<g transform="translate(0.000000,2000.000000) scale(0.100000,-0.100000)"
fill="#000000" stroke="none">
<path d="M5360 13707 c116 -114 244 -271 289 -355 11 -21 18 -22 121 -22 61 0
110 4 110 9 0 5 -4 11 -9 13 -5 2 -32 25 -60 51 -50 47 -51 50 -51 107 0 102
-24 125 -35 35 l-7 -55 -37 32 c-128 112 -353 268 -388 268 -12 0 10 -27 67
-83z"/>
<path d="M6025 13782 c6 -4 35 -24 65 -45 93 -63 191 -162 248 -252 7 -11 27
-50 45 -87 l32 -68 268 0 c147 0 267 2 267 5 0 2 -20 18 -45 35 -61 42 -58 54
13 46 91 -10 152 -27 218 -57 l61 -29 566 0 567 0 0 33 c0 17 9 47 20 65 16
27 18 37 9 48 -6 8 -16 14 -21 14 -6 0 -5 -7 2 -15 7 -9 10 -18 6 -22 -3 -3
-6 -1 -6 6 0 7 -9 9 -25 5 -19 -5 -30 -1 -44 15 -16 19 -20 19 -31 6 -15 -19
-34 -20 -27 -2 3 8 1 20 -4 28 -6 10 -9 8 -9 -10 0 -16 -4 -21 -14 -18 -8 3
-19 0 -26 -7 -8 -10 -7 -15 5 -20 8 -3 15 -10 15 -15 0 -7 -9 -7 -25 -1 -20 8
-23 7 -18 -8 6 -14 5 -15 -9 -2 -9 8 -12 17 -7 18 5 2 9 11 9 19 0 13 -3 13
-15 3 -10 -8 -15 -9 -15 -2 0 6 -10 17 -22 23 -22 12 -22 12 -4 -15 17 -27 17
-27 -3 -16 -12 6 -21 16 -21 23 0 9 -2 9 -8 -1 -13 -20 -74 -34 -84 -19 -5 8
-8 8 -8 1 0 -7 -9 -14 -20 -17 -11 -3 -18 -1 -14 4 3 5 0 9 -5 9 -6 0 -11 -3
-11 -7 0 -5 -11 -8 -25 -8 -14 0 -25 3 -25 8 0 4 -9 7 -20 7 -11 0 -20 -4 -20
-10 0 -5 -5 -10 -11 -10 -8 0 -8 4 1 15 16 19 4 39 -14 22 -8 -6 -12 -15 -9
-19 2 -5 0 -8 -5 -8 -5 0 -12 9 -15 21 -3 12 -10 18 -16 15 -5 -4 -13 -2 -16
4 -5 8 -11 8 -20 0 -10 -8 -14 -7 -18 2 -2 7 5 18 16 24 13 7 16 14 8 18 -6 4
-11 3 -11 -1 0 -5 -12 -8 -26 -8 -29 2 -57 32 -50 51 3 7 -2 15 -10 18 -7 3
-13 0 -11 -6 1 -6 -4 -13 -12 -16 -10 -3 -12 0 -8 11 6 16 -16 31 -43 29 -10
-1 -11 0 -2 4 21 9 13 22 -13 22 -32 0 -44 10 -25 22 8 6 10 10 5 10 -12 0
-45 -36 -45 -49 0 -7 -17 -8 -53 -2 -5 0 -1 9 9 18 15 16 15 17 -1 23 -9 3
-17 10 -17 15 0 6 -4 9 -9 8 -5 -2 -8 0 -8 5 5 27 -3 42 -22 42 -13 0 -19 5
-16 13 3 7 -1 21 -8 30 -11 15 -14 15 -18 3 -3 -8 -1 -17 6 -19 7 -2 9 -7 6
-11 -12 -13 -37 5 -32 24 5 19 -12 19 -638 20 -354 0 -639 -3 -634 -8z m1457
-174 c-7 -7 -12 -8 -12 -2 0 14 12 26 19 19 2 -3 -1 -11 -7 -17z m135 -68 c-2
-11 -6 -22 -10 -25 -4 -3 -5 -2 -2 2 3 3 -3 12 -13 20 -9 8 -11 12 -4 8 6 -3
12 -1 12 4 0 6 4 11 10 11 5 0 9 -9 7 -20z m-353 -6 c9 -3 16 -10 16 -16 0
-14 -43 -5 -48 10 -4 13 7 15 32 6z m456 -74 c0 -5 -5 -10 -11 -10 -5 0 -7 5
-4 10 3 6 8 10 11 10 2 0 4 -4 4 -10z m111 -33 c-10 -9 -11 -8 -5 6 3 10 9 15
12 12 3 -3 0 -11 -7 -18z"/>
<path d="M7350 13780 c0 -5 5 -10 10 -10 6 0 10 5 10 10 0 6 -4 10 -10 10 -5
0 -10 -4 -10 -10z"/>
<path d="M9250 13779 c0 -5 5 -7 10 -4 6 3 10 2 10 -4 0 -20 -23 -24 -37 -6
-7 11 -13 13 -13 7 0 -7 -7 -12 -15 -12 -8 0 -15 -6 -15 -12 0 -9 -4 -8 -10 2
-5 8 -10 10 -10 4 0 -7 -9 -14 -21 -17 -13 -4 -18 -10 -13 -18 4 -7 3 -10 -4
-5 -6 3 -22 -8 -37 -26 -15 -18 -25 -25 -22 -16 4 12 2 15 -8 11 -8 -3 -12 -9
-9 -14 3 -5 -2 -9 -10 -9 -15 0 -21 12 -17 34 1 5 -5 6 -14 2 -9 -3 -21 -6
-27 -6 -6 0 -4 -8 5 -18 16 -18 14 -32 -5 -32 -5 0 -7 4 -3 9 3 5 1 12 -5 16
-5 3 -10 -1 -10 -9 0 -9 -6 -15 -12 -13 -7 1 -12 -3 -11 -10 3 -15 -24 -6 -49
15 -16 14 -18 13 -18 -8 0 -15 -4 -20 -14 -17 -9 4 -17 -2 -21 -13 -4 -11 -12
-17 -21 -13 -7 3 -14 1 -14 -5 0 -6 6 -12 13 -15 6 -3 2 -4 -11 -4 -14 1 -21
6 -18 14 3 7 0 15 -6 19 -6 4 -8 3 -5 -2 3 -6 -4 -16 -16 -24 -20 -12 -21 -12
-8 3 12 15 11 17 -4 17 -9 0 -19 -9 -22 -20 -5 -19 -6 -19 -23 2 l-17 22 -12
-22 c-7 -13 -16 -20 -22 -17 -5 4 -9 1 -9 -5 0 -6 -4 -9 -9 -6 -5 4 -12 0 -14
-6 -4 -10 -8 -9 -16 2 -8 12 -11 8 -11 -17 0 -18 -4 -33 -10 -33 -5 0 -10 11
-10 25 0 14 -4 25 -10 25 -9 0 -14 -14 -11 -32 1 -11 -17 -10 -23 1 -4 5 -1
11 6 13 9 3 9 6 0 12 -7 4 -12 2 -12 -4 0 -6 -4 -8 -10 -5 -5 3 -7 0 -4 -8 3
-8 -2 -17 -10 -20 -9 -4 -16 -3 -16 1 0 4 -9 8 -20 8 -11 0 -20 -4 -20 -9 0
-4 -4 -6 -8 -3 -4 2 -14 1 -22 -5 -11 -6 -6 -9 18 -9 71 0 132 -56 132 -121
l0 -39 642 2 642 3 26 70 c24 64 25 72 11 95 -27 46 -86 102 -124 120 -72 33
-170 -7 -252 -102 -44 -52 -51 -44 -54 51 -2 75 22 157 59 196 l21 22 -103 1
c-59 1 -108 -3 -115 -10 -10 -8 -13 -7 -13 3 0 11 -3 11 -11 -1 -8 -11 -12
-12 -16 -2 -6 15 -33 16 -33 1z m430 -285 c0 -8 -4 -12 -10 -9 -5 3 -10 10
-10 16 0 5 5 9 10 9 6 0 10 -7 10 -16z m-760 -144 c0 -5 -4 -10 -10 -10 -5 0
-10 5 -10 10 0 6 5 10 10 10 6 0 10 -4 10 -10z m860 0 c0 -5 -2 -10 -4 -10 -3
0 -8 5 -11 10 -3 6 -1 10 4 10 6 0 11 -4 11 -10z"/>
<path d="M10493 13743 c30 -45 32 -54 36 -155 2 -60 -1 -108 -5 -108 -5 0 -34
25 -64 56 -117 121 -232 126 -318 16 -57 -73 -61 -89 -38 -157 l21 -60 558 -3
c491 -2 557 0 557 13 0 8 7 15 16 15 10 0 14 -6 10 -15 -3 -8 -1 -15 5 -15 5
0 12 7 15 15 4 8 15 15 26 15 14 0 18 -5 14 -15 -4 -12 4 -15 39 -15 l45 0 0
43 c0 24 5 48 11 54 7 7 6 12 -6 17 -10 4 -14 2 -9 -5 4 -8 -1 -9 -15 -4 -12
3 -21 2 -21 -3 0 -6 5 -12 12 -14 8 -3 8 -9 0 -24 -9 -15 -11 -16 -12 -3 0 9
-11 28 -25 43 l-25 26 -20 -20 c-15 -15 -20 -17 -20 -5 0 8 -8 15 -18 15 -20
0 -54 35 -44 45 4 4 -4 4 -18 0 -32 -10 -47 -13 -37 -8 15 9 6 23 -14 23 -12
0 -23 8 -26 19 -2 10 -16 24 -30 30 -20 9 -23 15 -15 23 7 7 12 19 12 28 -1
12 -4 11 -16 -5 -13 -17 -17 -18 -27 -5 -13 16 -29 22 -62 24 -28 2 -46 15
-39 29 5 9 3 8 -6 0 -11 -10 -10 -16 5 -33 26 -29 11 -25 -20 6 -14 14 -32 23
-40 20 -8 -3 -17 -1 -21 5 -4 6 -11 5 -22 -3 -13 -11 -14 -11 -10 2 3 8 15 14
27 13 18 -2 20 -1 9 11 -7 8 -16 12 -20 10 -10 -6 -38 7 -33 16 3 5 -4 6 -15
3 -11 -3 -23 -9 -26 -14 -3 -5 -21 3 -40 18 -32 24 -39 25 -66 15 -22 -8 -28
-8 -25 1 3 7 9 11 15 10 5 -1 13 4 16 12 3 9 -1 15 -10 15 -9 0 -12 5 -8 13 6
9 5 9 -8 -1 -12 -10 -18 -9 -28 3 -9 11 -33 15 -86 15 l-73 0 32 -47z m523
-142 c-4 -5 0 -11 6 -14 7 -2 10 -8 6 -12 -4 -4 -14 -1 -22 8 -15 14 -12 27 6
27 5 0 7 -4 4 -9z m74 -64 c0 -6 -9 -2 -20 8 -11 10 -20 23 -20 28 0 6 9 2 20
-8 11 -10 20 -23 20 -28z m40 -53 c0 -8 -4 -12 -10 -9 -5 3 -10 10 -10 16 0 5
5 9 10 9 6 0 10 -7 10 -16z m-480 -44 c0 -11 -7 -20 -15 -20 -15 0 -21 21 -8
33 12 13 23 7 23 -13z"/>
<path d="M12850 13775 c0 -9 5 -15 11 -13 6 2 11 8 11 13 0 5 -5 11 -11 13 -6
2 -11 -4 -11 -13z"/>
<path d="M13020 13776 c0 -9 7 -16 16 -16 17 0 14 22 -4 28 -7 2 -12 -3 -12
-12z"/>
<path d="M13065 13758 c4 -24 2 -29 -7 -20 -17 17 -58 15 -58 -3 0 -14 -3 -14
-25 1 -26 17 -45 12 -45 -12 0 -8 -3 -13 -8 -10 -4 2 -23 1 -42 -4 -24 -5 -28
-8 -12 -9 12 -1 22 -7 22 -13 0 -9 3 -9 9 1 8 12 15 12 47 -2 22 -9 33 -16 27
-16 -7 -1 -12 -6 -10 -13 1 -6 -6 -13 -15 -15 -12 -3 -15 1 -11 16 3 12 1 21
-6 21 -6 0 -11 -7 -11 -15 0 -9 -11 -20 -23 -26 -18 -8 -23 -17 -19 -34 3 -16
9 -22 21 -19 13 5 13 3 -2 -6 -17 -11 -65 -4 -53 7 5 5 -31 43 -41 43 -2 0 4
-11 13 -25 19 -28 9 -34 -13 -7 -14 16 -14 16 -9 -1 6 -19 -13 -57 -28 -57 -4
0 -3 7 4 15 10 12 10 15 -3 15 -8 0 -17 -11 -19 -25 -5 -22 -3 -25 16 -19 11
4 27 11 34 16 6 6 12 7 12 2 0 -15 -14 -30 -33 -37 -20 -7 -19 -29 1 -33 7 -1
8 0 2 3 -19 9 -10 23 13 20 15 -1 21 3 19 13 -2 8 8 3 22 -12 22 -21 25 -30
17 -49 l-10 -24 0 27 c-1 29 -16 45 -26 28 -4 -6 -1 -18 7 -27 12 -15 11 -15
-9 -5 -28 16 -33 15 -33 -3 0 -8 -7 -15 -15 -15 -8 0 -15 -7 -15 -15 0 -8 5
-15 10 -15 6 0 10 5 10 11 0 5 5 7 10 4 6 -3 10 -11 10 -17 0 -6 -3 -8 -7 -5
-3 4 -15 -1 -26 -10 -19 -17 -20 -17 -14 0 4 11 1 17 -9 17 -11 0 -14 -6 -9
-22 5 -18 4 -20 -4 -8 -8 12 -11 12 -11 1 0 -11 -3 -11 -15 -1 -20 17 -19 31
3 24 14 -5 15 -4 2 5 -11 7 -21 6 -36 -4 -15 -9 -24 -11 -32 -3 -15 15 -35 -1
-29 -22 3 -12 -2 -20 -16 -24 -12 -3 -19 -8 -16 -11 8 -8 76 22 81 35 4 13 38
2 38 -12 0 -6 -6 -8 -14 -5 -8 3 -19 0 -25 -7 -18 -21 124 -22 156 -1 51 34
156 65 234 71 43 3 79 2 79 -2 0 -5 -19 -25 -42 -46 l-43 -37 255 0 255 -1 13
27 c6 15 12 32 12 39 0 24 108 172 172 236 37 37 98 88 135 113 l68 45 -442 0
-442 0 4 -32z m-105 -33 c0 -8 -2 -15 -4 -15 -2 0 -6 7 -10 15 -3 8 -1 15 4
15 6 0 10 -7 10 -15z m-25 -165 c3 -5 1 -10 -4 -10 -6 0 -11 5 -11 10 0 6 2
10 4 10 3 0 8 -4 11 -10z m-85 -15 c0 -8 -2 -15 -4 -15 -2 0 -6 7 -10 15 -3 8
-1 15 4 15 6 0 10 -7 10 -15z m47 -17 c1 -18 -1 -27 -4 -20 -3 6 -12 12 -21
12 -15 0 -15 2 -2 10 8 5 11 10 7 10 -10 0 2 20 12 20 4 0 8 -15 8 -32z m-82
-98 c3 -5 1 -10 -4 -10 -6 0 -11 5 -11 10 0 6 2 10 4 10 3 0 8 -4 11 -10z
m-185 -50 c0 -5 -4 -10 -10 -10 -5 0 -10 5 -10 10 0 6 5 10 10 10 6 0 10 -4
10 -10z"/>
<path d="M14635 13777 c-65 -38 -284 -196 -334 -242 l-59 -55 -6 31 c-3 17 -6
45 -6 61 0 17 -4 27 -10 23 -5 -3 -10 -37 -10 -74 l0 -68 -66 -61 -67 -62 112
0 111 0 13 28 c6 15 14 29 17 32 3 3 23 30 45 60 59 83 131 166 223 257 76 76
88 99 37 70z"/>
<path d="M9106 13765 c-3 -8 -1 -17 4 -20 6 -4 10 -1 10 5 0 7 8 9 21 5 14 -5
19 -3 15 3 -3 6 0 12 6 15 7 2 -1 4 -19 5 -18 0 -34 -5 -37 -13z"/>
<path d="M9016 13745 c-9 -26 -7 -32 5 -12 6 10 9 21 6 23 -2 3 -7 -2 -11 -11z"/>
<path d="M10770 13745 c-7 -9 -8 -15 -2 -15 5 0 12 7 16 15 3 8 4 15 2 15 -2
0 -9 -7 -16 -15z"/>
<path d="M10710 13740 c0 -5 9 -14 21 -20 19 -11 20 -10 9 9 -11 22 -30 29
-30 11z"/>
<path d="M9043 13725 c-6 -7 -8 -18 -3 -26 7 -11 10 -10 15 3 10 24 2 38 -12
23z"/>
<path d="M5038 13714 c-2 -10 -6 -46 -7 -79 -2 -33 -6 -102 -10 -153 -3 -51
-3 -96 0 -100 4 -4 25 -43 49 -87 23 -44 48 -87 55 -95 7 -8 23 -35 35 -60 13
-24 30 -56 40 -70 10 -14 64 -106 120 -205 127 -222 280 -488 308 -535 12 -19
33 -57 48 -85 14 -27 34 -60 44 -75 16 -24 208 -353 240 -412 8 -15 41 -70 73
-122 31 -52 57 -98 57 -101 0 -4 14 -27 30 -52 17 -24 30 -46 30 -47 0 -2 52
-95 116 -207 64 -112 127 -224 141 -249 14 -25 46 -80 72 -124 25 -43 56 -94
67 -115 l22 -36 161 -3 161 -2 0 -103 c1 -56 0 -182 0 -279 l-1 -176 51 -89
c51 -89 63 -111 127 -218 20 -33 52 -89 71 -125 19 -36 46 -81 58 -100 l24
-35 0 468 0 467 -24 38 c-13 20 -32 55 -43 77 -22 45 -174 307 -183 315 -3 3
-23 39 -44 80 -22 41 -42 77 -46 80 -4 3 -24 37 -45 75 -20 39 -43 77 -49 85
-7 8 -17 27 -24 43 -6 15 -15 27 -20 27 -5 0 -9 6 -9 14 0 16 -43 89 -49 83
-3 -2 0 -17 6 -33 8 -24 8 -26 -2 -14 -7 9 -21 14 -30 12 -10 -2 -18 2 -18 8
0 6 -4 8 -10 5 -5 -3 -10 -2 -10 2 0 10 42 38 52 35 4 -1 3 9 -4 22 -10 22
-12 23 -26 9 -13 -13 -13 -16 -1 -24 11 -7 9 -10 -8 -15 -37 -10 -21 -54 19
-54 11 0 18 -7 17 -17 0 -11 -3 -13 -6 -5 -2 6 -9 12 -14 12 -4 0 -6 -7 -3
-15 7 -16 -11 -21 -21 -6 -3 5 -20 7 -39 4 -22 -3 -42 0 -60 12 -24 16 -26 16
-26 1 0 -11 4 -14 13 -10 9 6 9 5 0 -7 -10 -12 -10 -18 -1 -27 9 -9 9 -12 0
-12 -10 0 -15 10 -14 30 0 3 -7 11 -15 19 -14 13 -15 10 -10 -25 3 -21 3 -31
1 -21 -3 9 -10 17 -16 17 -6 0 -8 11 -3 28 6 26 6 26 -9 7 -15 -19 -15 -19
-16 -1 0 16 -2 17 -17 5 -11 -10 -14 -10 -9 -1 11 18 -4 38 -16 21 -8 -11 -9
-10 -4 4 3 9 1 17 -4 17 -6 0 -10 8 -9 18 0 10 3 12 6 4 5 -13 23 -7 23 8 0
10 -19 8 -39 -4 -9 -6 -12 -5 -9 5 2 7 17 16 32 20 22 6 33 3 51 -15 16 -16
25 -20 28 -12 6 15 -49 50 -63 41 -6 -3 -10 -1 -10 6 0 8 -4 8 -15 -1 -12 -10
-15 -10 -15 0 0 8 -3 10 -7 7 -3 -4 -12 -2 -19 4 -10 8 -11 5 -7 -13 3 -13 4
-21 2 -18 -2 3 -14 17 -27 31 l-23 27 30 -2 c16 -1 33 -5 37 -9 4 -4 12 -7 18
-7 5 0 0 9 -12 20 -12 11 -26 20 -33 20 -9 0 -9 3 0 14 12 15 5 46 -11 46 -11
0 -35 22 -34 32 1 3 -3 10 -8 15 -5 4 -6 3 -2 -4 4 -7 0 -11 -12 -10 -14 1
-17 7 -14 25 3 14 -1 28 -9 33 -11 7 -11 9 3 9 9 0 19 6 21 13 4 9 6 9 6 -1 1
-7 6 -10 12 -7 7 5 5 14 -5 29 -17 26 -10 40 23 51 l25 8 -30 12 c-16 8 -24
14 -17 14 7 1 10 7 7 15 -3 8 -1 17 5 21 6 3 11 1 11 -4 0 -6 5 -11 11 -11 12
0 1 43 -12 48 -5 2 -7 8 -3 13 3 5 12 2 20 -6 9 -8 12 -20 8 -26 -4 -7 -3 -9
4 -6 6 5 8 0 5 -13 -4 -14 0 -20 11 -20 10 0 14 -4 11 -10 -3 -5 1 -10 9 -10
23 0 19 17 -6 31 -13 7 -18 14 -11 16 13 5 -16 63 -31 63 -6 0 5 11 24 25 44
32 54 32 15 0 -16 -13 -24 -24 -17 -25 6 0 12 -7 12 -16 0 -20 24 -44 44 -44
9 0 16 -4 16 -10 0 -5 7 -10 15 -10 7 0 19 -8 24 -17 6 -10 11 -14 11 -9 0 6
7 1 15 -10 14 -18 15 -17 4 8 -7 15 -16 25 -20 22 -5 -3 -9 1 -9 9 0 8 -10 33
-23 55 -19 34 -25 38 -45 31 -13 -5 -22 -5 -22 1 0 6 7 10 15 10 19 0 19 19 2
45 -8 11 -33 55 -56 97 -23 43 -72 129 -109 192 -37 64 -89 155 -117 203 -27
48 -64 112 -82 143 -18 30 -44 78 -59 105 -15 28 -40 69 -55 92 -16 23 -29 45
-29 50 0 4 -9 22 -21 38 l-21 30 7 -50 c24 -168 -6 -378 -75 -527 l-13 -27
-17 22 c-10 12 -38 63 -62 112 -52 103 -81 158 -88 165 -3 3 -25 44 -49 92
l-45 87 28 51 c36 66 23 82 -27 34 -20 -20 -37 -31 -37 -25 0 9 -23 68 -90
226 -4 11 -20 44 -34 74 -22 47 -24 57 -12 70 15 17 46 76 46 86 0 4 -16 -2
-36 -14 -43 -25 -44 -26 -44 -3 0 10 -4 22 -8 28 -5 5 -15 25 -22 44 -13 34
-103 221 -127 264 -7 11 -25 36 -41 55 -25 31 -29 32 -34 15z m802 -1538 c0
-3 -4 -8 -10 -11 -5 -3 -10 -1 -10 4 0 6 5 11 10 11 6 0 10 -2 10 -4z m150
-186 c0 -5 -4 -10 -10 -10 -5 0 -10 5 -10 10 0 6 5 10 10 10 6 0 10 -4 10 -10z
m418 -97 c2 -7 -1 -13 -8 -13 -6 0 -8 5 -5 10 3 6 1 10 -4 10 -6 0 -11 -5 -11
-11 0 -5 -5 -7 -10 -4 -15 9 -1 27 18 23 8 -2 17 -9 20 -15z m22 -33 c0 -5 -2
-10 -4 -10 -3 0 -8 5 -11 10 -3 6 -1 10 4 10 6 0 11 -4 11 -10z m-286 -212
c16 -32 10 -48 -19 -48 -29 0 -57 63 -32 73 26 11 36 6 51 -25z m150 -56 l23
-17 -29 -28 c-15 -16 -28 -24 -28 -18 0 5 7 14 15 19 16 8 11 42 -6 42 -5 0
-9 5 -9 10 0 14 9 12 34 -8z m-36 -12 c7 -11 11 -20 9 -20 -2 0 -12 9 -22 20
-10 11 -14 20 -9 20 5 0 15 -9 22 -20z m372 -245 c7 -8 8 -15 2 -15 -5 0 -15
7 -22 15 -7 8 -8 15 -2 15 5 0 15 -7 22 -15z m-220 -35 c0 -5 -5 -10 -11 -10
-5 0 -7 5 -4 10 3 6 8 10 11 10 2 0 4 -4 4 -10z m230 -169 c0 -14 -18 -23 -30
-16 -6 4 -8 11 -5 16 8 12 35 12 35 0z m126 -19 c-22 -5 -30 3 -21 18 5 8 11
7 22 -2 15 -12 14 -13 -1 -16z m-236 -298 c0 -8 -4 -12 -10 -9 -5 3 -10 10
-10 16 0 5 5 9 10 9 6 0 10 -7 10 -16z m594 -349 c3 -8 3 -15 0 -15 -3 0 -12
7 -20 15 -13 13 -13 15 -1 15 8 0 17 -7 21 -15z"/>
<path d="M9081 13714 c0 -11 3 -14 6 -6 3 7 2 16 -1 19 -3 4 -6 -2 -5 -13z"/>
<path d="M10860 13710 c0 -5 5 -10 10 -10 6 0 10 5 10 10 0 6 -4 10 -10 10 -5
0 -10 -4 -10 -10z"/>
<path d="M14859 13647 c-26 -40 -63 -110 -84 -157 -20 -47 -45 -104 -56 -127
-10 -24 -19 -47 -19 -52 0 -19 -20 -22 -50 -6 -16 8 -30 13 -30 11 0 -13 35
-76 42 -76 13 0 9 -34 -6 -55 -7 -11 -39 -85 -71 -165 -32 -80 -61 -148 -64
-152 -4 -4 -21 6 -39 23 -18 17 -36 28 -40 24 -4 -3 5 -29 20 -57 l27 -51 -68
-131 c-80 -153 -161 -303 -178 -331 -13 -20 -13 -20 -25 0 -62 99 -94 255 -92
443 1 57 1 102 -1 100 -4 -5 -206 -359 -231 -406 -23 -42 -23 -42 -4 -54 21
-13 27 -28 11 -28 -5 0 -16 7 -24 15 -13 13 -16 13 -21 -1 -3 -8 -2 -13 3 -10
5 3 14 -1 21 -9 7 -8 16 -12 21 -9 5 3 9 -2 9 -10 0 -29 23 -29 46 -1 19 24
24 26 29 13 4 -9 -4 -27 -20 -44 -15 -16 -22 -30 -16 -32 6 -2 11 -8 11 -14 0
-6 -7 -8 -15 -4 -12 4 -13 2 -3 -14 9 -14 16 -16 25 -8 19 15 16 5 -9 -39
l-22 -38 23 20 24 20 -7 -22 c-4 -12 -2 -24 4 -28 5 -3 10 -1 10 4 0 6 7 11
16 11 13 0 15 -6 9 -27 -6 -27 -6 -27 14 -9 22 20 30 9 9 -12 -10 -10 -10 -15
2 -22 10 -7 11 -10 3 -10 -7 0 -13 -7 -13 -16 0 -14 3 -14 16 -3 8 7 13 21 11
30 -4 15 -2 16 13 6 13 -7 16 -16 10 -27 -6 -12 -4 -16 11 -16 18 0 30 36 41
120 3 21 28 35 28 16 0 -6 -4 -9 -9 -6 -15 10 -18 -75 -3 -91 9 -8 12 -23 8
-39 -6 -22 -5 -24 13 -15 11 6 22 16 24 23 4 9 6 8 6 -2 1 -8 13 8 27 35 15
28 32 57 39 65 7 8 25 38 39 65 15 28 62 111 106 185 44 74 97 164 117 200 20
36 63 111 97 168 34 57 79 136 101 175 22 40 47 84 56 97 32 49 117 196 139
240 21 42 22 52 15 170 -4 69 -8 136 -9 150 -2 14 -4 35 -4 48 -1 12 -5 22 -9
22 -5 -1 -29 -33 -54 -73z m-911 -1257 c-7 -10 -14 -17 -17 -15 -4 4 18 35 25
35 2 0 -1 -9 -8 -20z m92 -93 c0 -5 -4 -5 -10 -2 -5 3 -10 2 -10 -4 0 -5 4
-11 9 -13 17 -6 0 -56 -21 -61 -15 -4 -18 -2 -12 11 4 9 7 29 7 45 -1 15 3 27
8 27 5 0 9 8 9 18 0 14 2 15 10 2 5 -8 10 -19 10 -23z m170 -41 c0 -3 -4 -8
-10 -11 -5 -3 -10 -1 -10 4 0 6 5 11 10 11 6 0 10 -2 10 -4z"/>
<path d="M7437 13670 c5 -20 15 -25 26 -14 6 6 -16 34 -26 34 -3 0 -3 -9 0
-20z"/>
<path d="M12820 13641 c0 -5 7 -11 14 -14 10 -4 13 -1 9 9 -6 15 -23 19 -23 5z"/>
<path d="M8700 13630 c0 -5 5 -10 11 -10 5 0 7 5 4 10 -3 6 -8 10 -11 10 -2 0
-4 -4 -4 -10z"/>
<path d="M8800 13620 c0 -5 5 -10 11 -10 5 0 7 5 4 10 -3 6 -8 10 -11 10 -2 0
-4 -4 -4 -10z"/>
<path d="M12615 13550 c-3 -5 -1 -10 4 -10 6 0 11 5 11 10 0 6 -2 10 -4 10 -3
0 -8 -4 -11 -10z"/>
<path d="M12690 13540 c0 -5 5 -10 11 -10 5 0 7 5 4 10 -3 6 -8 10 -11 10 -2
0 -4 -4 -4 -10z"/>
<path d="M8100 13495 c0 -8 2 -15 4 -15 2 0 6 7 10 15 3 8 1 15 -4 15 -6 0
-10 -7 -10 -15z"/>
<path d="M8000 13485 c0 -8 4 -15 10 -15 5 0 7 7 4 15 -4 8 -8 15 -10 15 -2 0
-4 -7 -4 -15z"/>
<path d="M8290 13480 c0 -5 5 -10 10 -10 6 0 10 5 10 10 0 6 -4 10 -10 10 -5
0 -10 -4 -10 -10z"/>
<path d="M7865 13470 c-3 -5 -1 -10 4 -10 6 0 11 5 11 10 0 6 -2 10 -4 10 -3
0 -8 -4 -11 -10z"/>
<path d="M12455 13460 c3 -5 8 -10 11 -10 2 0 4 5 4 10 0 6 -5 10 -11 10 -5 0
-7 -4 -4 -10z"/>
<path d="M12675 13460 c3 -5 8 -10 11 -10 2 0 4 5 4 10 0 6 -5 10 -11 10 -5 0
-7 -4 -4 -10z"/>
<path d="M12630 13425 c0 -8 5 -15 10 -15 6 0 10 7 10 15 0 8 -4 15 -10 15 -5
0 -10 -7 -10 -15z"/>
<path d="M11675 13371 c3 -5 -2 -17 -11 -25 -14 -15 -12 -16 23 -15 35 0 36 1
13 10 -18 7 -21 12 -11 18 10 6 9 10 -4 14 -9 4 -14 3 -10 -2z"/>
<path d="M3605 12910 c-3 -5 1 -10 10 -10 9 0 13 5 10 10 -3 6 -8 10 -10 10
-2 0 -7 -4 -10 -10z"/>
<path d="M13846 12341 c-4 -5 -2 -12 3 -15 5 -4 12 -2 15 3 4 5 2 12 -3 15 -5
4 -12 2 -15 -3z"/>
<path d="M13892 12337 c13 -10 15 -16 6 -25 -9 -9 -9 -12 0 -12 6 0 17 10 23
23 6 12 8 19 4 15 -4 -4 -17 -3 -29 3 -19 9 -19 9 -4 -4z"/>
<path d="M13805 12320 c3 -5 1 -10 -4 -10 -6 0 -11 -4 -11 -10 0 -17 14 -11
28 10 10 17 10 20 -4 20 -8 0 -12 -4 -9 -10z"/>
<path d="M13810 12259 c0 -5 5 -7 10 -4 6 3 10 8 10 11 0 2 -4 4 -10 4 -5 0
-10 -5 -10 -11z"/>
<path d="M13780 12251 c0 -6 4 -13 10 -16 6 -3 7 1 4 9 -7 18 -14 21 -14 7z"/>
<path d="M13958 12143 c-10 -2 -18 -8 -18 -13 0 -4 9 -6 20 -3 11 3 20 9 20
14 0 5 -1 8 -2 8 -2 -1 -11 -3 -20 -6z"/>
<path d="M14075 12070 c-3 -5 -1 -10 4 -10 6 0 11 5 11 10 0 6 -2 10 -4 10 -3
0 -8 -4 -11 -10z"/>
<path d="M6387 11791 c3 -12 9 -21 14 -21 14 0 11 16 -5 29 -12 10 -13 8 -9
-8z"/>
<path d="M6355 11790 c3 -5 8 -10 11 -10 2 0 4 5 4 10 0 6 -5 10 -11 10 -5 0
-7 -4 -4 -10z"/>
<path d="M6330 11771 c0 -5 7 -12 16 -15 14 -5 15 -4 4 9 -14 17 -20 19 -20 6z"/>
<path d="M6491 11760 c14 -31 19 -36 19 -24 0 6 -7 19 -16 30 -14 18 -14 18
-3 -6z"/>
<path d="M6316 11721 c-4 -5 -2 -12 3 -15 5 -4 12 -2 15 3 4 5 2 12 -3 15 -5
4 -12 2 -15 -3z"/>
<path d="M6530 11690 c6 -11 13 -20 16 -20 2 0 0 9 -6 20 -6 11 -13 20 -16 20
-2 0 0 -9 6 -20z"/>
<path d="M6365 11670 c3 -5 8 -10 11 -10 2 0 4 5 4 10 0 6 -5 10 -11 10 -5 0
-7 -4 -4 -10z"/>
<path d="M6550 11653 c0 -4 5 -15 10 -23 8 -13 10 -13 10 2 0 9 -4 20 -10 23
-5 3 -10 3 -10 -2z"/>
<path d="M6330 11609 c0 -5 5 -7 10 -4 6 3 10 8 10 11 0 2 -4 4 -10 4 -5 0
-10 -5 -10 -11z"/>
<path d="M6466 11605 c4 -8 12 -15 20 -15 20 0 17 7 -6 20 -16 9 -18 8 -14 -5z"/>
<path d="M6580 11607 c0 -4 13 -31 30 -60 16 -29 30 -45 30 -37 0 8 -14 35
-30 60 -16 25 -30 41 -30 37z"/>
<path d="M6349 11598 c-7 -24 -7 -48 0 -52 4 -3 8 8 9 24 0 17 -1 30 -4 30 -2
0 -4 -1 -5 -2z"/>
<path d="M6432 11574 c-14 -15 -15 -14 32 -28 12 -4 13 0 7 16 -10 28 -22 31
-39 12z"/>
<path d="M6380 11569 c0 -5 5 -7 10 -4 6 3 10 8 10 11 0 2 -4 4 -10 4 -5 0
-10 -5 -10 -11z"/>
<path d="M6546 11557 c3 -10 9 -15 12 -12 3 3 0 11 -7 18 -10 9 -11 8 -5 -6z"/>
<path d="M6477 11513 c-10 -9 -9 -23 1 -23 5 0 9 7 9 15 0 17 -1 18 -10 8z"/>
<path d="M6428 11503 c7 -3 16 -2 19 1 4 3 -2 6 -13 5 -11 0 -14 -3 -6 -6z"/>
<path d="M6402 11428 c-8 -8 -9 -15 -1 -25 15 -17 54 -17 71 0 7 8 18 12 25
10 6 -2 15 1 19 8 4 7 3 9 -4 5 -6 -3 -14 -1 -17 5 -5 7 -12 4 -21 -9 -7 -11
-25 -19 -39 -19 -20 0 -24 3 -20 18 7 22 4 24 -13 7z"/>
<path d="M6530 11390 c0 -6 4 -9 9 -6 5 3 11 -1 15 -9 7 -19 26 -19 26 0 0 8
-4 15 -9 15 -5 0 -16 3 -25 6 -9 3 -16 1 -16 -6z"/>
<path d="M13216 11131 c-4 -7 -5 -15 -2 -18 9 -9 19 4 14 18 -4 11 -6 11 -12
0z"/>
<path d="M13302 11070 c-7 -11 -8 -20 -3 -20 9 0 24 30 18 36 -1 2 -8 -6 -15
-16z"/>
<path d="M13077 11066 c-4 -10 -3 -15 3 -11 6 3 10 1 10 -6 0 -7 3 -10 6 -6 3
3 2 13 -4 22 -8 16 -9 16 -15 1z"/>
<path d="M12955 10858 c-59 -101 -110 -186 -112 -190 -2 -4 2 -5 10 -2 8 3 17
-2 21 -11 7 -20 -23 -33 -34 -15 -6 9 -10 7 -15 -9 -3 -11 -12 -27 -19 -33
-16 -17 -106 -177 -106 -190 0 -5 7 -23 17 -41 45 -87 55 -161 59 -442 6 -334
4 -318 29 -270 11 22 62 111 113 198 50 86 92 160 92 163 0 4 16 32 35 64 l35
58 0 281 0 281 159 0 158 0 25 38 c41 62 108 188 108 203 0 11 -2 12 -9 1 -6
-10 -10 -9 -14 7 -7 29 -23 26 -33 -6 -5 -21 -8 -24 -11 -10 -5 19 -23 23 -23
5 0 -10 -2 -10 -8 -1 -4 7 -18 11 -31 8 -34 -6 -58 13 -54 44 2 14 0 20 -3 14
-9 -21 -26 -15 -19 7 7 23 -10 27 -22 5 -8 -13 -12 -13 -37 0 -35 19 -43 19
-43 1 0 -8 6 -12 15 -9 12 5 12 2 3 -15 -15 -29 -41 -28 -42 1 0 15 -2 17 -6
7 -6 -14 -22 -30 -33 -30 -3 0 -16 10 -30 23 -14 12 -31 22 -37 23 -30 2 -34
5 -28 14 3 6 4 10 2 10 -3 0 -53 -82 -112 -182z m245 92 c0 -5 -5 -10 -11 -10
-5 0 -7 5 -4 10 3 6 8 10 11 10 2 0 4 -4 4 -10z m130 6 c0 -3 -4 -8 -10 -11
-5 -3 -10 -1 -10 4 0 6 5 11 10 11 6 0 10 -2 10 -4z m-40 -16 c0 -5 -2 -10 -4
-10 -3 0 -8 5 -11 10 -3 6 -1 10 4 10 6 0 11 -4 11 -10z m-85 -109 c3 -5 1
-12 -5 -16 -5 -3 -10 1 -10 9 0 18 6 21 15 7z"/>
<path d="M13130 11016 c0 -2 7 -9 15 -16 9 -7 15 -8 15 -2 0 5 -7 12 -15 16
-8 3 -15 4 -15 2z"/>
<path d="M13365 10970 c-3 -5 -1 -10 4 -10 6 0 11 5 11 10 0 6 -2 10 -4 10 -3
0 -8 -4 -11 -10z"/>
<path d="M13405 10970 c-3 -5 -2 -10 4 -10 5 0 13 5 16 10 3 6 2 10 -4 10 -5
0 -13 -4 -16 -10z"/>
<path d="M3872 10668 c3 -22 6 -23 111 -21 90 1 108 -1 103 -13 -3 -8 -1 -14
4 -14 6 0 10 -5 10 -11 0 -7 -7 -8 -17 -4 -10 4 -38 9 -63 11 -25 2 -55 6 -66
9 -12 3 -27 -2 -34 -10 -7 -8 -18 -15 -24 -15 -6 0 -5 4 3 9 7 5 9 11 4 14
-15 9 -35 -9 -31 -29 3 -17 15 -19 105 -21 57 -1 105 2 108 8 4 5 14 5 27 -2
25 -13 68 -4 68 16 0 9 -13 15 -37 17 -42 3 -47 17 -13 34 24 13 17 21 -17 18
-13 0 -23 2 -23 7 0 4 10 10 23 12 12 2 2 5 -23 5 -34 0 -40 -2 -25 -8 26 -11
25 -11 -73 -14 -65 -2 -82 0 -78 11 4 9 -3 13 -20 13 -21 0 -25 -4 -22 -22z"/>
<path d="M4153 10680 c4 -18 47 -41 60 -33 11 7 7 10 -18 15 -11 1 -26 10 -33
18 -12 13 -13 13 -9 0z"/>
<path d="M4290 10659 c0 -5 9 -9 20 -9 11 0 20 2 20 4 0 2 -9 6 -20 9 -11 3
-20 1 -20 -4z"/>
<path d="M4243 10653 c9 -2 23 -2 30 0 6 3 -1 5 -18 5 -16 0 -22 -2 -12 -5z"/>
<path d="M4214 10604 c3 -8 6 -18 6 -20 0 -2 9 -4 21 -4 26 0 20 20 -10 32
-19 7 -22 5 -17 -8z"/>
<path d="M4385 10610 c-3 -5 -1 -10 4 -10 6 0 11 5 11 10 0 6 -2 10 -4 10 -3
0 -8 -4 -11 -10z"/>
<path d="M4285 10590 c3 -5 11 -10 16 -10 6 0 7 5 4 10 -3 6 -11 10 -16 10 -6
0 -7 -4 -4 -10z"/>
<path d="M3870 10543 c0 -17 23 -29 28 -15 5 16 59 15 65 0 4 -10 6 -10 6 0 1
17 21 15 21 -3 0 -20 16 -19 24 0 4 12 22 16 78 16 90 -1 109 1 103 8 -3 3
-78 5 -165 6 -118 0 -160 -3 -160 -12z"/>
<path d="M4215 10550 c-3 -5 1 -10 10 -10 9 0 13 5 10 10 -3 6 -8 10 -10 10
-2 0 -7 -4 -10 -10z"/>
<path d="M4310 10550 c-12 -8 -9 -10 13 -10 16 0 26 4 22 10 -8 12 -16 12 -35
0z"/>
<path d="M4085 10520 c3 -5 8 -10 11 -10 2 0 4 5 4 10 0 6 -5 10 -11 10 -5 0
-7 -4 -4 -10z"/>
<path d="M4046 10508 c-10 -6 -31 -7 -47 -4 -17 3 -28 2 -25 -3 3 -5 -1 -11
-9 -15 -8 -3 -15 -1 -15 4 0 16 -67 12 -73 -5 -11 -27 -7 -268 4 -282 8 -9 8
-13 0 -13 -14 0 -15 -218 -1 -256 7 -17 7 -30 1 -33 -7 -5 -8 -522 -1 -541 1
-3 1 -9 0 -15 -2 -5 -5 -592 -6 -1304 l-4 -1293 33 5 c32 6 156 22 612 80
l250 32 -2 485 c-1 326 -6 486 -13 488 -5 2 -13 -3 -16 -12 -7 -19 -24 -21
-24 -3 0 13 34 47 48 47 12 0 4 530 -9 546 -8 10 -9 14 0 14 8 0 12 61 12 218
0 119 1 225 1 235 2 24 103 25 112 1 8 -22 7 -31 -2 -17 -4 6 -19 14 -32 16
-22 4 -25 1 -27 -24 -2 -32 5 -39 49 -46 33 -5 57 15 35 29 -8 5 -4 8 11 8 12
0 22 5 22 10 0 6 -9 10 -20 10 -27 0 -25 16 2 23 25 7 29 5 32 -15 1 -7 5 -19
9 -25 5 -8 4 -13 -2 -13 -6 0 -11 -4 -11 -9 0 -5 9 -7 20 -4 24 6 26 35 5 57
-8 8 -15 19 -15 25 0 15 23 14 38 -1 16 -16 15 2 -1 24 -13 16 -62 19 -85 4
-7 -4 -12 -2 -12 5 0 8 -17 10 -60 6 -65 -6 -103 0 -94 14 3 5 -2 12 -10 15
-34 13 -15 26 29 22 25 -3 45 -1 45 4 0 5 5 6 11 2 18 -11 143 -3 156 9 3 4
-58 6 -137 6 -78 0 -145 3 -148 6 -3 3 9 5 28 5 28 0 31 2 20 15 -10 12 -10
15 3 15 8 0 18 -8 22 -17 7 -16 9 -15 15 7 l8 25 7 -23 c7 -21 8 -21 21 -5 13
17 13 17 14 -2 0 -15 2 -17 9 -6 5 7 13 11 18 8 5 -3 27 -1 49 4 21 6 60 11
86 12 51 2 73 13 30 15 -15 0 -104 2 -198 3 -188 2 -304 14 -184 20 36 1 103
3 150 4 144 4 147 4 130 15 -8 5 -10 10 -5 10 6 0 3 5 -5 10 -8 5 -28 7 -44 4
-23 -4 -27 -2 -23 11 4 8 2 15 -2 15 -5 0 -11 -5 -13 -12 -5 -13 -48 -19 -48
-6 0 4 8 8 18 9 11 1 9 3 -7 8 -22 6 -23 8 -8 23 21 21 21 26 0 24 -12 -1 -17
5 -15 17 2 9 -2 17 -8 17 -5 0 -10 -7 -10 -15 0 -18 -21 -20 -38 -3 -6 6 -49
13 -99 15 -97 4 -126 13 -41 13 36 0 58 5 61 13 4 8 8 9 14 2 11 -15 103 -17
120 -4 29 25 9 31 -109 30 -68 -1 -143 1 -168 3 -25 3 -52 5 -60 6 -13 0 -13
2 -1 9 8 5 30 8 48 5 18 -2 33 1 33 6 0 6 5 10 10 10 6 0 10 -6 10 -14 0 -9 7
-12 20 -9 11 3 17 9 14 14 -3 5 3 9 13 10 16 0 16 1 -2 8 -38 15 24 24 153 23
67 -1 122 2 122 6 0 4 -44 7 -98 7 -53 0 -106 4 -117 10 -11 5 -23 8 -27 7 -5
-1 -8 5 -8 13 0 18 37 20 42 3 3 -7 7 -6 11 5 10 26 -56 23 -93 -4 -17 -13
-37 -20 -49 -16 -11 2 -22 0 -25 -7 -3 -7 -8 -6 -15 4 -10 13 -12 13 -21 0 -8
-13 -10 -13 -10 2 0 9 -6 19 -12 21 -7 3 -1 6 14 6 14 1 28 -5 31 -11 3 -10 7
-10 20 0 9 8 21 11 26 8 5 -4 12 -2 16 4 3 5 0 10 -7 10 -7 0 -2 6 12 13 14 7
27 10 30 6 4 -5 35 -5 59 0 2 1 -2 8 -9 16 -8 9 -8 15 -2 15 6 0 12 -5 14 -12
7 -19 137 -22 144 -3 4 8 11 15 16 15 7 0 6 -5 -1 -13 -15 -19 -1 -30 18 -15
10 8 9 4 -3 -10 -16 -18 -17 -22 -4 -22 9 0 18 7 22 15 4 11 21 15 63 15 54 0
56 1 36 15 -12 9 -27 14 -34 13 -17 -4 -39 42 -33 68 3 12 0 25 -6 29 -7 4
-11 1 -9 -6 5 -42 -1 -51 -28 -44 -23 5 -25 4 -14 -9 12 -14 9 -16 -20 -17
-19 -1 -40 -1 -46 0 -7 1 -13 -5 -13 -14 0 -22 -17 -19 -23 4 -4 18 -8 19 -45
8 -22 -7 -44 -16 -48 -20 -14 -14 -26 -7 -14 8 8 10 9 15 2 15 -6 0 -16 -9
-22 -20 -10 -19 -27 -21 -70 -10 -3 0 9 7 25 15 l30 14 -30 -6 c-35 -7 -95
-41 -95 -54 0 -5 -5 -9 -12 -9 -6 0 -1 11 12 25 13 14 30 25 37 25 8 0 11 5 8
10 -4 6 -12 10 -18 9 -24 -3 -37 1 -37 12 0 5 5 7 10 4 6 -3 10 1 10 9 0 24
-15 19 -28 -9 -12 -26 -28 -29 -72 -15 -23 7 -23 8 -3 9 24 1 40 17 22 23 -7
2 -5 8 5 17 13 11 15 9 13 -13 -1 -14 3 -26 8 -26 9 0 12 20 17 100 1 24 28
48 47 43 13 -3 16 -12 13 -35 -4 -28 -3 -30 19 -22 40 13 109 0 71 -13 -6 -3
-10 -9 -6 -14 7 -11 34 15 34 33 0 7 -4 19 -9 27 -8 13 -12 13 -27 0 -13 -11
-18 -11 -21 -1 -3 6 -13 12 -24 12 -17 0 -18 3 -9 20 10 18 8 19 -20 14 -20
-4 -30 -3 -30 5 0 7 -5 9 -12 4 -21 -13 -42 -13 -51 0 -7 9 -10 9 -14 0 -7
-18 -20 -16 -20 2 0 8 4 12 9 9 4 -3 8 1 8 9 0 12 -10 14 -42 10 -30 -3 -38
-1 -28 5 21 14 127 9 142 -6 7 -7 23 -12 38 -12 19 0 22 2 10 10 -23 14 -4 23
45 22 42 -2 60 10 33 21 -8 3 -5 6 5 6 10 1 16 5 13 10 -4 5 -18 8 -34 6 -15
-1 -30 2 -34 8 -4 6 -13 4 -24 -8 -13 -13 -19 -14 -22 -5 -3 9 -11 5 -24 -11
-17 -22 -18 -22 -16 -4 2 15 -2 19 -15 17 -10 -2 -25 2 -33 9 -13 10 -13 8 -4
-17 9 -25 8 -27 -4 -11 -7 9 -18 17 -24 17 -6 0 -9 7 -6 15 4 9 19 15 39 15
19 0 37 4 40 10 4 6 -1 7 -12 4 -14 -4 -12 -1 6 15 22 20 22 21 3 21 -15 0
-20 5 -17 20 3 14 -2 20 -16 20 -10 0 -19 5 -19 11 0 6 6 9 14 6 7 -3 19 0 25
6 8 8 11 8 11 -1 0 -19 37 -14 45 6 6 16 7 16 17 -1 7 -14 6 -21 -8 -31 -22
-17 -7 -24 31 -15 17 3 22 7 11 8 -13 1 -17 6 -13 21 3 11 1 18 -4 14 -5 -3
-9 -1 -9 5 0 5 5 13 10 16 15 9 12 25 -5 25 -8 0 -15 5 -15 10 0 6 7 10 15 10
8 0 15 -5 15 -11 0 -6 6 -9 14 -6 10 4 16 -5 20 -29 4 -19 11 -34 16 -34 13 0
13 17 0 25 -14 9 -13 26 2 23 15 -4 21 23 8 42 -7 11 -29 15 -89 15 -44 0 -77
-3 -75 -7 2 -3 0 -9 -5 -12 -5 -3 -12 2 -15 11 -6 15 -8 15 -17 3 -7 -11 -11
-12 -17 -3 -4 6 -14 11 -22 11 -38 -2 -103 3 -98 7 3 3 65 8 138 10 74 2 138
9 143 14 6 6 16 5 28 -2 10 -6 21 -8 25 -4 15 15 1 18 -118 26 -10 0 -18 5
-18 11 0 5 7 6 17 3 10 -4 14 -2 10 4 -4 6 -1 13 5 16 7 2 -29 4 -80 3 -62 -2
-91 1 -89 8 2 6 21 12 43 14 37 3 64 16 64 32 0 4 -36 8 -81 8 -44 1 -84 4
-90 7 -5 4 -9 2 -9 -2 0 -5 -26 -7 -57 -5 -32 1 -71 3 -87 3 -34 0 -75 28 -76
52 0 9 -5 17 -10 17 -19 0 23 46 43 48 11 0 25 6 31 13 8 9 4 10 -18 5 -26 -6
-28 -5 -17 8 9 10 30 16 60 16 26 0 52 5 59 12 9 9 12 8 12 -5 0 -13 6 -15 33
-10 17 3 38 15 45 25 15 20 34 16 26 -6 -4 -11 8 -14 50 -15 43 0 56 3 56 14
0 8 -5 15 -12 15 -6 0 -9 3 -5 6 11 11 -21 34 -45 33 -22 0 -22 -1 -3 -9 11
-5 15 -9 8 -9 -7 -1 -10 -7 -7 -15 3 -8 1 -17 -5 -21 -10 -5 -13 1 -10 21 0 4
-5 10 -11 14 -24 15 18 40 60 36 22 -2 40 1 40 5 0 9 -16 13 -34 10 -26 -5
-86 -2 -96 4 -16 10 26 44 55 46 17 1 16 2 -5 8 -14 5 -32 5 -39 0 -8 -4 -25
-3 -37 2 -13 4 -44 5 -70 2 -36 -4 -50 -2 -59 10 -8 11 -15 13 -29 5z m169
-55 c-2 -16 -4 -29 -4 -31 -1 -2 -7 0 -13 5 -7 4 -24 6 -38 5 -24 -3 -24 -2
-6 12 10 9 23 13 28 10 4 -3 11 2 14 10 10 26 23 18 19 -11z m-145 2 c0 -2
-10 -10 -22 -16 -21 -11 -22 -11 -9 4 13 16 31 23 31 12z m60 -3 c0 -4 -10 -9
-22 -9 -18 -2 -20 0 -8 7 18 12 30 13 30 2z m81 -42 c16 0 29 -4 29 -9 0 -5
-10 -7 -22 -3 -14 3 -19 2 -14 -6 4 -7 2 -12 -3 -12 -6 0 -11 5 -11 10 0 6
-21 11 -47 11 -43 1 -45 2 -18 9 17 4 36 6 43 4 8 -2 27 -4 43 -4z m-121 -40
c-11 -20 -30 -28 -30 -12 0 11 22 32 32 32 5 0 4 -9 -2 -20z m-50 -10 c0 -5
-5 -10 -11 -10 -5 0 -7 5 -4 10 3 6 8 10 11 10 2 0 4 -4 4 -10z m70 -6 c0 -8
-5 -12 -10 -9 -6 4 -8 11 -5 16 9 14 15 11 15 -7z m210 1 c0 -8 -7 -15 -15
-15 -9 0 -12 6 -9 15 4 8 10 15 15 15 5 0 9 -7 9 -15z m-310 -25 c0 -5 -12
-10 -27 -9 -25 0 -26 1 -8 9 27 12 35 12 35 0z m-70 -86 c0 -2 -11 -4 -25 -4
-14 0 -25 4 -25 9 0 4 11 6 25 3 14 -2 25 -6 25 -8z m14 -30 c3 -8 2 -12 -4
-9 -6 3 -10 10 -10 16 0 14 7 11 14 -7z m266 -73 c0 -5 -7 -14 -15 -21 -16
-14 -18 -10 -9 14 6 17 24 22 24 7z m40 -15 c0 -2 -7 -7 -16 -10 -8 -3 -12 -2
-9 4 6 10 25 14 25 6z m-180 -10 c0 -3 -4 -8 -10 -11 -5 -3 -10 -1 -10 4 0 6
5 11 10 11 6 0 10 -2 10 -4z m-45 -26 c3 -5 1 -10 -4 -10 -6 0 -11 5 -11 10 0
6 2 10 4 10 3 0 8 -4 11 -10z m354 -19 c-8 -4 -41 -5 -74 -2 -57 5 -58 5 -20
10 49 7 114 1 94 -8z m-39 -21 c0 -5 -2 -10 -4 -10 -3 0 -8 5 -11 10 -3 6 -1
10 4 10 6 0 11 -4 11 -10z m-400 -30 c0 -5 -4 -10 -10 -10 -5 0 -10 5 -10 10
0 6 5 10 10 10 6 0 10 -4 10 -10z m190 0 c0 -5 -2 -10 -4 -10 -3 0 -8 5 -11
10 -3 6 -1 10 4 10 6 0 11 -4 11 -10z m166 -85 c-4 -10 2 -19 17 -25 19 -7 17
-9 -15 -9 -21 -1 -38 4 -38 10 0 5 4 8 9 5 5 -3 11 3 14 14 3 11 8 20 12 20 4
0 4 -7 1 -15z m54 -2 c0 -3 -7 -3 -15 1 -8 3 -15 0 -15 -6 0 -6 -3 -9 -6 -5
-11 10 6 26 21 20 8 -3 15 -7 15 -10z m-190 3 c0 -3 -4 -8 -10 -11 -5 -3 -10
-1 -10 4 0 6 5 11 10 11 6 0 10 -2 10 -4z m-115 -26 c5 -8 11 -8 19 -1 9 8 18
7 31 -3 16 -11 14 -13 -19 -11 -19 0 -41 6 -48 13 -9 9 -9 12 -1 12 7 0 15 -5
18 -10z m165 0 c0 -5 -2 -10 -4 -10 -2 0 -12 -3 -22 -7 -16 -6 -17 -5 -4 10
17 19 30 22 30 7z m-220 -10 c0 -5 -4 -10 -10 -10 -5 0 -10 5 -10 10 0 6 5 10
10 10 6 0 10 -4 10 -10z m160 6 c0 -11 -19 -15 -25 -6 -3 5 1 10 9 10 9 0 16
-2 16 -4z m100 0 c0 -11 -19 -15 -25 -6 -3 5 1 10 9 10 9 0 16 -2 16 -4z m100
-46 c-9 -5 -9 -9 -1 -14 6 -4 11 -11 11 -17 0 -14 -28 -11 -33 4 -2 6 -8 0
-12 -14 -5 -19 -15 -29 -36 -33 -17 -3 -28 -10 -24 -16 3 -5 1 -10 -4 -10 -13
0 -14 17 -2 24 5 3 7 15 4 26 -4 14 1 22 18 28 18 7 20 11 8 18 -10 6 -3 10
26 14 44 6 64 2 45 -10z m-383 4 c-3 -3 -12 -4 -19 -1 -8 3 -5 6 6 6 11 1 17
-2 13 -5z m31 -38 c-2 -1 -12 -6 -24 -13 -20 -11 -20 -11 -5 23 14 32 16 33
23 13 5 -12 7 -22 6 -23z m142 33 c0 -6 -4 -7 -10 -4 -5 3 -10 2 -10 -4 0 -5
6 -12 13 -15 6 -4 2 -4 -10 -2 -13 2 -23 1 -23 -3 0 -8 -80 -5 -88 4 -5 5 38
9 71 6 9 -1 17 4 17 11 0 8 9 14 20 15 11 1 20 -3 20 -8z m36 -36 c-7 -7 -26
7 -26 19 0 6 6 6 15 -2 9 -7 13 -15 11 -17z m44 7 c0 -5 -2 -10 -4 -10 -3 0
-8 5 -11 10 -3 6 -1 10 4 10 6 0 11 -4 11 -10z m20 -30 c0 -5 -4 -10 -10 -10
-5 0 -10 5 -10 10 0 6 5 10 10 10 6 0 10 -4 10 -10z m247 -36 c-3 -3 -12 -4
-19 -1 -8 3 -5 6 6 6 11 1 17 -2 13 -5z m-227 -58 c0 -3 -4 -8 -10 -11 -5 -3
-10 -1 -10 4 0 6 5 11 10 11 6 0 10 -2 10 -4z m115 -45 c3 -5 1 -12 -5 -16 -5
-3 -10 1 -10 9 0 18 6 21 15 7z m-240 -21 c3 -5 1 -10 -4 -10 -6 0 -11 5 -11
10 0 6 2 10 4 10 3 0 8 -4 11 -10z m215 -20 c0 -5 -4 -10 -10 -10 -5 0 -10 5
-10 10 0 6 5 10 10 10 6 0 10 -4 10 -10z m-195 -20 c3 -5 1 -10 -4 -10 -6 0
-11 5 -11 10 0 6 2 10 4 10 3 0 8 -4 11 -10z m-251 -45 c3 -8 1 -15 -4 -15 -6
0 -10 7 -10 15 0 8 2 15 4 15 2 0 6 -7 10 -15z m122 -7 c-2 -14 -11 -24 -24
-26 -25 -4 -27 1 -12 29 15 27 41 25 36 -3z m-111 -28 c3 -5 1 -10 -4 -10 -6
0 -11 5 -11 10 0 6 2 10 4 10 3 0 8 -4 11 -10z m915 -9 c0 -5 -7 -11 -15 -15
-9 -3 -15 0 -15 9 0 8 7 15 15 15 8 0 15 -4 15 -9z m-365 -51 c-3 -5 -13 -10
-21 -10 -8 0 -12 5 -9 10 3 6 13 10 21 10 8 0 12 -4 9 -10z m-375 -50 c-8 -5
-17 -7 -19 -4 -3 3 1 9 9 14 8 5 17 7 19 4 3 -3 -1 -9 -9 -14z m80 4 c0 -8 -5
-12 -10 -9 -6 4 -8 11 -5 16 9 14 15 11 15 -7z m65 -3 c3 -5 1 -12 -5 -16 -5
-3 -10 1 -10 9 0 18 6 21 15 7z m129 -45 c9 3 16 1 16 -5 0 -6 -7 -11 -16 -11
-8 0 -12 -4 -9 -10 3 -5 1 -10 -5 -10 -6 0 -9 -4 -5 -9 8 -13 -24 -29 -46 -24
-22 6 -22 8 -9 34 9 15 7 19 -5 19 -9 0 -13 5 -10 11 4 6 13 8 21 5 7 -3 16
-1 20 5 4 7 10 6 19 -1 7 -6 20 -8 29 -4z m-267 -2 c-3 -3 -12 -4 -19 -1 -8 3
-5 6 6 6 11 1 17 -2 13 -5z m358 -4 c3 -5 -3 -10 -14 -10 -12 0 -21 5 -21 10
0 6 6 10 14 10 8 0 18 -4 21 -10z m75 0 c0 -5 -15 -10 -32 -10 -25 0 -29 3
-18 10 20 13 50 13 50 0z m-126 -15 c-4 -8 -8 -15 -10 -15 -2 0 -4 7 -4 15 0
8 4 15 10 15 5 0 7 -7 4 -15z m-17 -31 c-3 -3 -12 -4 -19 -1 -8 3 -5 6 6 6 11
1 17 -2 13 -5z m208 -34 c3 -5 2 -10 -4 -10 -5 0 -13 5 -16 10 -3 6 -2 10 4
10 5 0 13 -4 16 -10z m-389 -25 c-3 -9 -11 -13 -16 -10 -8 5 -7 11 1 21 14 18
24 11 15 -11z m264 5 c0 -5 -4 -10 -10 -10 -5 0 -10 5 -10 10 0 6 5 10 10 10
6 0 10 -4 10 -10z m-133 -6 c-3 -3 -12 -4 -19 -1 -8 3 -5 6 6 6 11 1 17 -2 13
-5z m340 -30 c-3 -3 -12 -4 -19 -1 -8 3 -5 6 6 6 11 1 17 -2 13 -5z m73 -23
c0 -5 -6 -14 -14 -20 -12 -10 -13 -8 -9 8 5 21 23 30 23 12z m-80 -23 c0 -6
-6 -5 -15 2 -8 7 -15 14 -15 16 0 2 7 1 15 -2 8 -4 15 -11 15 -16z m-430 -23
c-7 -8 -17 -15 -22 -15 -11 0 14 29 26 30 5 0 3 -7 -4 -15z m507 -31 c-3 -3
-12 -4 -19 -1 -8 3 -5 6 6 6 11 1 17 -2 13 -5z m-437 -64 c0 -5 -2 -10 -4 -10
-3 0 -8 5 -11 10 -3 6 -1 10 4 10 6 0 11 -4 11 -10z m151 -23 c22 -17 12 -37
-17 -37 -19 0 -24 5 -24 25 0 27 16 32 41 12z m179 -2 c0 -8 -7 -15 -16 -15
-14 0 -14 3 -4 15 7 8 14 15 16 15 2 0 4 -7 4 -15z m-97 -12 c-7 -2 -19 -2
-25 0 -7 3 -2 5 12 5 14 0 19 -2 13 -5z m50 0 c-7 -2 -19 -2 -25 0 -7 3 -2 5
12 5 14 0 19 -2 13 -5z m24 -35 c7 -5 18 -6 24 -2 9 5 10 2 6 -10 -4 -10 -7
-22 -7 -27 0 -5 -4 -9 -10 -9 -5 0 -10 7 -10 15 0 9 -6 12 -15 9 -18 -7 -20
12 -2 20 6 3 2 3 -10 0 -13 -3 -23 -1 -23 4 0 12 32 12 47 0z m62 -15 c-12
-15 -12 -16 6 -9 16 6 18 5 8 -5 -10 -10 -16 -10 -24 -2 -12 12 -4 33 13 33 6
0 5 -7 -3 -17z m45 -88 c-4 -8 -7 -15 -9 -15 -2 0 -5 7 -9 15 -3 9 0 15 9 15
9 0 12 -6 9 -15z m-254 -35 c0 -5 -4 -10 -10 -10 -5 0 -10 5 -10 10 0 6 5 10
10 10 6 0 10 -4 10 -10z m390 0 c8 -5 11 -12 7 -16 -3 -4 -13 -2 -20 4 -8 7
-17 9 -20 5 -4 -3 -7 -1 -7 5 0 14 19 15 40 2z m-200 -40 c0 -5 -2 -10 -4 -10
-3 0 -8 5 -11 10 -3 6 -1 10 4 10 6 0 11 -4 11 -10z m-110 -300 c0 -5 -5 -10
-11 -10 -5 0 -7 5 -4 10 3 6 8 10 11 10 2 0 4 -4 4 -10z m145 -10 c3 -6 -1 -7
-9 -4 -18 7 -21 14 -7 14 6 0 13 -4 16 -10z m-220 -10 c-3 -5 -12 -10 -18 -10
-7 0 -6 4 3 10 19 12 23 12 15 0z m38 -40 c-3 -11 -9 -20 -14 -20 -5 0 -9 9
-9 20 0 11 6 20 14 20 9 0 12 -7 9 -20z m67 -4 c0 -3 -4 -8 -10 -11 -5 -3 -10
-1 -10 4 0 6 5 11 10 11 6 0 10 -2 10 -4z m-40 -36 c0 -5 -2 -10 -4 -10 -3 0
-8 5 -11 10 -3 6 -1 10 4 10 6 0 11 -4 11 -10z m-55 -10 c3 -5 -1 -10 -9 -10
-9 0 -16 5 -16 10 0 6 4 10 9 10 6 0 13 -4 16 -10z m-30 -120 c3 -6 -1 -7 -9
-4 -18 7 -21 14 -7 14 6 0 13 -4 16 -10z m145 -30 c0 -5 -5 -10 -11 -10 -5 0
-7 5 -4 10 3 6 8 10 11 10 2 0 4 -4 4 -10z m65 -58 c-9 -9 -33 31 -28 45 4 9
10 5 19 -13 8 -15 12 -29 9 -32z m-315 -2 c0 -5 -4 -10 -10 -10 -5 0 -10 5
-10 10 0 6 5 10 10 10 6 0 10 -4 10 -10z m375 -12 c9 -26 12 -87 4 -82 -5 3
-9 0 -9 -6 0 -6 -4 -9 -9 -5 -5 3 -12 1 -16 -5 -4 -7 -12 -7 -25 0 -10 5 -27
7 -37 4 -11 -4 -14 -3 -7 3 17 13 25 71 11 77 -7 3 -2 3 11 0 15 -4 24 0 28
10 7 19 43 21 49 4z m-719 -75 c20 -27 17 -33 -15 -33 -35 0 -48 15 -31 35 16
20 30 19 46 -2z m599 -172 c3 -5 1 -12 -5 -16 -5 -3 -10 1 -10 9 0 18 6 21 15
7z m-175 -125 c0 -3 -4 -8 -10 -11 -5 -3 -10 -1 -10 4 0 6 5 11 10 11 6 0 10
-2 10 -4z m70 -127 c0 -5 -7 -9 -15 -9 -8 0 -15 7 -15 15 0 9 6 12 15 9 8 -4
15 -10 15 -15z m-390 -39 c0 -5 -7 -10 -15 -10 -8 0 -15 5 -15 10 0 6 7 10 15
10 8 0 15 -4 15 -10z m346 -47 c-11 -11 -17 4 -9 23 7 18 8 18 11 1 2 -10 1
-21 -2 -24z m-72 19 c-7 -4 -13 -16 -16 -27 -3 -18 -30 -28 -51 -18 -8 5 10
25 38 41 22 12 47 16 29 4z m36 -22 c0 -5 -4 -10 -10 -10 -5 0 -10 5 -10 10 0
6 5 10 10 10 6 0 10 -4 10 -10z m30 -24 c0 -3 -4 -8 -10 -11 -5 -3 -10 -1 -10
4 0 6 5 11 10 11 6 0 10 -2 10 -4z m-70 -346 c0 -5 -4 -10 -10 -10 -5 0 -10 5
-10 10 0 6 5 10 10 10 6 0 10 -4 10 -10z m280 -190 c0 -5 -5 -10 -11 -10 -5 0
-7 5 -4 10 3 6 8 10 11 10 2 0 4 -4 4 -10z"/>
<path d="M4270 9816 c0 -2 7 -6 15 -10 8 -3 15 -1 15 4 0 6 -7 10 -15 10 -8 0
-15 -2 -15 -4z"/>
<path d="M4483 10432 c-13 -2 -23 -8 -23 -13 0 -8 47 -3 58 6 8 6 -15 11 -35
7z"/>
<path d="M4370 10419 c0 -5 5 -7 10 -4 6 3 10 8 10 11 0 2 -4 4 -10 4 -5 0
-10 -5 -10 -11z"/>
<path d="M4380 10375 c0 -7 30 -13 34 -7 3 4 -4 9 -15 9 -10 1 -19 0 -19 -2z"/>
<path d="M4425 10349 c-4 -6 -4 -13 -1 -16 3 -4 6 -1 6 6 0 8 7 10 21 6 15 -5
19 -4 15 4 -9 14 -33 14 -41 0z"/>
<path d="M4120 10306 c0 -8 5 -18 10 -21 6 -3 10 3 10 14 0 12 -4 21 -10 21
-5 0 -10 -6 -10 -14z"/>
<path d="M4156 10303 c-4 -8 -4 -19 0 -24 3 -5 -2 -9 -11 -9 -9 0 -13 -5 -10
-11 5 -7 16 -2 32 13 24 22 25 22 19 3 -5 -16 -1 -21 14 -21 11 0 20 4 20 8 0
4 -5 8 -11 8 -5 0 -7 5 -4 11 4 6 13 8 21 5 14 -5 30 11 20 21 -3 3 -23 7 -45
8 -27 2 -42 -2 -45 -12z"/>
<path d="M4267 10296 c-5 -12 -1 -13 18 -6 15 6 25 5 27 -1 4 -11 58 -2 58 10
0 4 -22 8 -49 10 -35 1 -50 -2 -54 -13z"/>
<path d="M4398 10296 c-10 -7 -15 -16 -11 -19 3 -4 -11 -7 -33 -7 -25 0 -34
-3 -26 -9 20 -12 65 -1 85 22 26 30 17 38 -15 13z"/>
<path d="M4470 10300 c0 -13 11 -13 30 0 12 8 11 10 -7 10 -13 0 -23 -4 -23
-10z"/>
<path d="M4008 10263 c7 -3 16 -2 19 1 4 3 -2 6 -13 5 -11 0 -14 -3 -6 -6z"/>
<path d="M4070 10259 c0 -5 5 -7 10 -4 6 3 10 8 10 11 0 2 -4 4 -10 4 -5 0
-10 -5 -10 -11z"/>
<path d="M4248 10263 c12 -2 32 -2 45 0 12 2 2 4 -23 4 -25 0 -35 -2 -22 -4z"/>
<path d="M4410 10259 c0 -5 5 -7 10 -4 6 3 10 8 10 11 0 2 -4 4 -10 4 -5 0
-10 -5 -10 -11z"/>
<path d="M4488 10263 c7 -3 16 -2 19 1 4 3 -2 6 -13 5 -11 0 -14 -3 -6 -6z"/>
<path d="M4017 10218 c20 -22 20 -22 26 1 3 15 -1 18 -19 17 -21 -1 -21 -2 -7
-18z"/>
<path d="M4153 10225 c17 -16 87 -21 87 -5 0 5 6 7 14 4 8 -3 16 -1 19 3 3 5
-26 10 -64 11 -63 2 -69 1 -56 -13z"/>
<path d="M4333 10230 c-13 -5 -23 -13 -23 -18 0 -9 41 -6 70 5 8 4 22 5 30 4
11 -2 12 0 4 9 -9 9 -17 9 -32 1 -26 -14 -35 -14 -27 -1 7 12 7 12 -22 0z"/>
<path d="M4285 10220 c-3 -5 -1 -10 4 -10 6 0 11 5 11 10 0 6 -2 10 -4 10 -3
0 -8 -4 -11 -10z"/>
<path d="M4060 10210 c0 -5 5 -10 10 -10 6 0 10 5 10 10 0 6 -4 10 -10 10 -5
0 -10 -4 -10 -10z"/>
<path d="M4117 10197 c-4 -10 2 -14 19 -14 14 0 24 0 22 1 -2 1 -10 7 -19 14
-14 10 -18 10 -22 -1z"/>
<path d="M4228 10183 c7 -3 16 -2 19 1 4 3 -2 6 -13 5 -11 0 -14 -3 -6 -6z"/>
<path d="M4394 10153 c-18 -18 -18 -18 6 -20 11 -1 20 2 20 8 0 13 28 11 32
-3 2 -6 9 -8 16 -4 6 3 9 12 6 20 -7 17 -62 16 -80 -1z"/>
<path d="M4466 10094 c-17 -12 -17 -14 -4 -14 9 0 20 5 23 11 11 17 2 18 -19
3z"/>
<path d="M4575 9975 c0 -25 9 -33 19 -16 3 4 17 7 31 6 16 -2 25 2 25 11 0 8
-9 13 -22 13 -13 -1 -30 1 -38 5 -11 5 -15 0 -15 -19z"/>
<path d="M4528 9883 c7 -3 16 -2 19 1 4 3 -2 6 -13 5 -11 0 -14 -3 -6 -6z"/>
<path d="M4464 9851 c5 -8 56 -3 56 5 0 2 -14 4 -31 4 -16 0 -28 -4 -25 -9z"/>
<path d="M4430 9820 c0 -5 5 -10 10 -10 6 0 10 5 10 10 0 6 -4 10 -10 10 -5 0
-10 -4 -10 -10z"/>
<path d="M4800 9750 c-12 -8 -11 -10 8 -10 12 0 22 5 22 10 0 13 -11 13 -30 0z"/>
<path d="M4867 9753 c-4 -3 -7 -11 -7 -17 0 -6 5 -5 12 2 6 6 9 14 7 17 -3 3
-9 2 -12 -2z"/>
<path d="M5056 9748 c3 -4 12 -8 20 -8 8 0 14 4 14 8 0 4 -9 8 -19 8 -11 0
-17 -4 -15 -8z"/>
<path d="M4605 9740 c-3 -6 1 -7 10 -4 8 4 22 1 30 -6 13 -11 14 -10 9 4 -7
18 -39 22 -49 6z"/>
<path d="M4740 9739 c0 -5 5 -7 10 -4 6 3 10 8 10 11 0 2 -4 4 -10 4 -5 0 -10
-5 -10 -11z"/>
<path d="M4366 9721 c-3 -5 1 -14 9 -21 12 -10 15 -10 15 3 0 19 -16 31 -24
18z"/>
<path d="M4819 9682 c-15 -17 -14 -19 13 -19 16 0 28 6 28 13 0 8 -6 11 -17 7
-11 -4 -14 -3 -9 5 11 18 2 14 -15 -6z"/>
<path d="M4506 9682 c-3 -6 -1 -14 5 -17 14 -9 20 -2 10 14 -6 8 -11 9 -15 3z"/>
<path d="M4640 9677 c0 -11 8 -17 25 -17 14 0 25 5 25 11 0 6 -6 9 -14 6 -7
-3 -19 0 -25 6 -8 8 -11 7 -11 -6z"/>
<path d="M4713 9675 c6 -7 15 -11 20 -8 13 8 7 19 -13 20 -16 1 -17 -1 -7 -12z"/>
<path d="M4580 9670 c0 -5 5 -10 11 -10 5 0 7 5 4 10 -3 6 -8 10 -11 10 -2 0
-4 -4 -4 -10z"/>
<path d="M4770 9670 c-9 -6 -10 -10 -3 -10 6 0 15 5 18 10 8 12 4 12 -15 0z"/>
<path d="M4877 9655 c-18 -13 -17 -14 7 -31 30 -19 49 -11 21 10 -10 7 -15 18
-11 24 9 15 5 15 -17 -3z"/>
<path d="M4654 9643 c5 -9 0 -13 -17 -13 -14 0 -31 -7 -38 -16 -12 -15 -11
-16 11 -9 37 12 64 12 72 0 5 -7 8 -6 8 1 0 6 -10 19 -22 30 -12 10 -18 13
-14 7z"/>
<path d="M4718 9633 c-10 -2 -18 -9 -18 -14 0 -14 26 -11 40 6 13 15 9 16 -22
8z"/>
<path d="M4760 9628 c0 -8 15 -14 37 -16 41 -3 35 11 -9 22 -19 4 -28 2 -28
-6z"/>
<path d="M4960 9616 c0 -8 -6 -17 -12 -19 -8 -3 -8 -6 -2 -6 6 -1 19 8 29 19
16 18 16 20 2 20 -10 0 -17 -6 -17 -14z"/>
<path d="M4405 9579 c-10 -16 1 -22 21 -11 11 6 27 7 41 1 13 -5 23 -5 23 0 0
5 -14 11 -31 15 -42 8 -47 8 -54 -5z"/>
<path d="M4670 9578 c0 -9 7 -19 16 -22 24 -9 24 -4 3 18 -16 16 -19 17 -19 4z"/>
<path d="M4890 9570 c0 -5 7 -7 15 -4 8 4 15 2 15 -4 0 -5 13 -12 30 -14 28
-4 29 -4 13 14 -17 19 -28 24 -18 8 3 -5 2 -10 -4 -10 -5 0 -13 5 -16 10 -8
13 -35 13 -35 0z"/>
<path d="M4630 9535 c-10 -12 -10 -15 4 -15 9 0 16 7 16 15 0 8 -2 15 -4 15
-2 0 -9 -7 -16 -15z"/>
<path d="M4896 9531 c-4 -7 -5 -15 -2 -18 9 -9 19 4 14 18 -4 11 -6 11 -12 0z"/>
<path d="M4748 9523 c7 -3 16 -2 19 1 4 3 -2 6 -13 5 -11 0 -14 -3 -6 -6z"/>
<path d="M4957 9478 c-6 -4 -7 -8 -2 -9 6 0 24 -2 42 -5 18 -2 34 0 37 5 7 11
-60 19 -77 9z"/>
<path d="M4695 9440 c-4 -6 3 -10 14 -10 25 0 27 6 6 13 -8 4 -17 2 -20 -3z"/>
<path d="M4833 9433 c9 -2 23 -2 30 0 6 3 -1 5 -18 5 -16 0 -22 -2 -12 -5z"/>
<path d="M4870 9380 c0 -5 5 -10 11 -10 5 0 7 5 4 10 -3 6 -8 10 -11 10 -2 0
-4 -4 -4 -10z"/>
<path d="M4925 9380 c-3 -5 1 -10 9 -10 8 0 18 5 21 10 3 6 -1 10 -9 10 -8 0
-18 -4 -21 -10z"/>
<path d="M4990 9386 c0 -2 7 -7 16 -10 8 -3 12 -2 9 4 -6 10 -25 14 -25 6z"/>
<path d="M4598 9323 c7 -3 16 -2 19 1 4 3 -2 6 -13 5 -11 0 -14 -3 -6 -6z"/>
<path d="M4710 9240 c0 -5 5 -10 11 -10 5 0 7 5 4 10 -3 6 -8 10 -11 10 -2 0
-4 -4 -4 -10z"/>
<path d="M4850 9210 l-25 -6 27 -6 c15 -3 32 -2 38 2 18 11 -10 18 -40 10z"/>
<path d="M4885 9160 c4 -6 11 -8 16 -5 14 9 11 15 -7 15 -8 0 -12 -5 -9 -10z"/>
<path d="M4953 9133 c9 -2 23 -2 30 0 6 3 -1 5 -18 5 -16 0 -22 -2 -12 -5z"/>
<path d="M5055 9070 c-3 -6 1 -7 9 -4 18 7 21 14 7 14 -6 0 -13 -4 -16 -10z"/>
<path d="M5095 9070 c4 -6 30 -8 61 -5 52 4 54 4 44 -15 -7 -14 -7 -20 0 -20
5 0 10 5 10 11 0 5 4 7 10 4 6 -4 7 1 3 11 -4 11 -3 15 5 10 6 -3 13 -2 16 2
3 5 -31 9 -75 10 -50 1 -78 -2 -74 -8z"/>
<path d="M5290 9069 c0 -5 5 -7 10 -4 6 3 10 8 10 11 0 2 -4 4 -10 4 -5 0 -10
-5 -10 -11z"/>
<path d="M5538 9063 c7 -3 16 -2 19 1 4 3 -2 6 -13 5 -11 0 -14 -3 -6 -6z"/>
<path d="M5000 9040 c0 -5 5 -10 10 -10 6 0 10 5 10 10 0 6 -4 10 -10 10 -5 0
-10 -4 -10 -10z"/>
<path d="M11824 8902 c-28 -48 -66 -114 -84 -147 -36 -66 -108 -189 -176 -302
-24 -40 -44 -76 -44 -80 0 -3 -17 -34 -38 -67 -43 -68 -142 -241 -142 -248 0
-3 100 -8 222 -11 244 -6 271 -2 305 49 17 26 18 56 15 458 -2 237 -4 431 -5
432 -1 2 -25 -37 -53 -84z m-179 -402 c-5 -8 -11 -8 -17 -2 -6 6 -7 16 -3 22
5 8 11 8 17 2 6 -6 7 -16 3 -22z m-13 -62 c-15 -15 -26 -4 -18 18 5 13 9 15
18 6 9 -9 9 -15 0 -24z m46 -17 c3 -8 -1 -12 -9 -9 -7 2 -15 10 -17 17 -3 8 1
12 9 9 7 -2 15 -10 17 -17z m-138 -127 c0 -8 -5 -12 -10 -9 -6 4 -8 11 -5 16
9 14 15 11 15 -7z m110 -44 c0 -5 -4 -10 -10 -10 -5 0 -10 5 -10 10 0 6 5 10
10 10 6 0 10 -4 10 -10z"/>
<path d="M5043 8925 c-9 -25 4 -29 17 -6 7 15 7 21 0 21 -6 0 -13 -7 -17 -15z"/>
<path d="M5150 8918 c0 -13 4 -18 8 -13 4 6 18 16 32 22 25 12 25 12 -7 12
-28 1 -33 -3 -33 -21z"/>
<path d="M5230 8930 c0 -5 5 -10 10 -10 6 0 10 5 10 10 0 6 -4 10 -10 10 -5 0
-10 -4 -10 -10z"/>
<path d="M5371 8936 c8 -8 78 -10 85 -3 4 4 -14 7 -41 7 -27 0 -46 -2 -44 -4z"/>
<path d="M5166 8875 c4 -8 8 -15 10 -15 2 0 4 7 4 15 0 8 -4 15 -10 15 -5 0
-7 -7 -4 -15z"/>
<path d="M5033 8825 c0 -8 4 -12 9 -9 5 3 6 10 3 15 -9 13 -12 11 -12 -6z"/>
<path d="M5075 8820 c-3 -5 -1 -10 4 -10 6 0 11 5 11 10 0 6 -2 10 -4 10 -3 0
-8 -4 -11 -10z"/>
<path d="M4879 8798 c-9 -18 -3 -48 9 -48 12 0 12 3 2 15 -9 10 -9 15 -1 15 6
0 11 5 11 10 0 9 -18 15 -21 8z"/>
<path d="M4919 8748 c-4 -73 8 -87 65 -78 48 7 73 -1 62 -19 -4 -6 -1 -11 8
-11 8 0 17 -8 19 -17 4 -17 5 -17 6 0 0 9 6 17 11 17 6 0 10 5 10 11 0 8 -4 8
-15 -1 -12 -10 -15 -7 -22 17 -4 15 -6 36 -4 46 1 9 -3 17 -8 17 -6 0 -11 -9
-11 -19 0 -16 -8 -19 -55 -20 -43 0 -55 3 -55 15 0 12 9 14 45 10 26 -3 47 0
51 6 5 7 -4 9 -25 6 -17 -2 -31 0 -31 5 0 5 -9 7 -20 4 -17 -4 -20 -2 -15 14
4 11 2 19 -4 19 -6 0 -12 -10 -12 -22z"/>
<path d="M5091 8761 c-10 -6 -9 -10 3 -14 8 -3 18 -2 21 3 8 13 -9 20 -24 11z"/>
<path d="M5295 8760 c-3 -5 3 -10 15 -10 12 0 18 5 15 10 -3 6 -10 10 -15 10
-5 0 -12 -4 -15 -10z"/>
<path d="M5210 8749 c0 -5 5 -7 10 -4 6 3 10 8 10 11 0 2 -4 4 -10 4 -5 0 -10
-5 -10 -11z"/>
<path d="M5358 8753 c7 -3 16 -2 19 1 4 3 -2 6 -13 5 -11 0 -14 -3 -6 -6z"/>
<path d="M5135 8731 c-3 -6 -11 -9 -16 -6 -5 4 -9 -1 -9 -9 0 -9 4 -16 9 -16
12 0 35 29 28 36 -3 3 -8 0 -12 -5z"/>
<path d="M5177 8733 c-4 -3 -7 -11 -7 -17 0 -6 5 -5 12 2 6 6 9 14 7 17 -3 3
-9 2 -12 -2z"/>
<path d="M5206 8715 c7 -17 20 -20 28 -6 3 5 -1 12 -10 15 -22 9 -24 8 -18 -9z"/>
<path d="M5077 8693 c-4 -3 -7 -11 -7 -17 0 -6 5 -5 12 2 6 6 9 14 7 17 -3 3
-9 2 -12 -2z"/>
<path d="M5100 8686 c0 -9 30 -14 35 -6 4 6 -3 10 -14 10 -12 0 -21 -2 -21 -4z"/>
<path d="M5150 8680 c0 -13 11 -13 30 0 12 8 11 10 -7 10 -13 0 -23 -4 -23
-10z"/>
<path d="M5210 8680 c0 -5 7 -7 15 -4 8 4 15 8 15 10 0 2 -7 4 -15 4 -8 0 -15
-4 -15 -10z"/>
<path d="M4950 8649 c0 -6 7 -9 14 -6 10 4 13 1 9 -9 -8 -21 5 -17 17 6 9 18
8 20 -15 20 -14 0 -25 -5 -25 -11z"/>
<path d="M5014 8645 c3 -9 0 -15 -9 -15 -20 0 -20 -44 0 -60 8 -6 19 -9 25 -5
5 3 10 2 10 -4 0 -5 -5 -11 -12 -13 -8 -3 -3 -14 15 -32 15 -15 27 -29 27 -32
0 -14 47 -74 59 -74 8 0 12 3 8 6 -11 12 24 36 51 37 26 0 27 0 4 10 -17 8
-26 6 -40 -6 -25 -23 -31 -21 -25 4 3 12 0 25 -7 29 -17 10 -4 31 15 23 19 -7
19 11 0 27 -22 18 -18 29 8 23 18 -4 19 -3 7 6 -8 6 -10 11 -5 12 6 0 1 4 -9
8 -29 11 -66 2 -59 -15 4 -11 8 -12 19 -3 12 9 13 9 9 -4 -4 -8 -15 -17 -26
-20 -13 -4 -17 -11 -13 -24 4 -13 3 -15 -4 -4 -5 7 -8 28 -5 45 4 32 3 33 -29
29 -29 -4 -31 -3 -16 10 17 14 21 57 5 57 -5 0 -7 -7 -3 -15z m91 -175 c7 -24
7 -24 -9 -5 -8 11 -16 27 -16 35 0 20 16 1 25 -30z"/>
<path d="M5107 8635 c-11 -16 -13 -26 -6 -30 6 -4 13 3 16 15 4 16 8 18 14 8
7 -10 9 -10 9 0 0 6 11 12 25 12 20 0 24 -4 23 -25 -3 -31 -18 -33 -18 -3 0
17 -3 19 -12 10 -13 -13 6 -42 29 -42 11 0 11 -4 3 -20 -11 -21 -6 -24 25 -10
11 5 14 9 7 9 -7 1 -10 6 -7 11 5 8 12 7 23 -2 12 -10 14 -10 8 0 -4 7 -1 12
8 12 9 0 16 5 16 10 0 6 -15 10 -34 10 -29 0 -34 3 -32 24 1 16 6 22 15 18 9
-3 12 -1 7 6 -9 15 -73 16 -82 1 -4 -7 -9 -8 -13 -1 -3 5 -14 0 -24 -13z"/>
<path d="M5295 8629 c-22 -3 -30 -7 -18 -8 17 -1 21 -5 16 -18 -5 -17 -5 -17
8 -1 12 14 30 16 72 9 4 0 7 -6 7 -12 0 -5 -4 -7 -10 -4 -5 3 -10 1 -10 -4 0
-7 20 -9 53 -7 51 3 61 15 37 39 -10 11 -102 14 -155 6z m133 -20 c-2 -6 -8
-10 -13 -10 -5 0 -11 4 -13 10 -2 6 4 11 13 11 9 0 15 -5 13 -11z"/>
<path d="M5477 8624 c6 -16 19 -18 27 -5 3 5 -3 11 -13 14 -14 3 -18 1 -14 -9z"/>
<path d="M5504 8593 c-21 -4 -42 -43 -23 -43 5 0 9 7 9 15 0 8 9 15 20 15 11
0 20 5 20 10 0 6 -1 9 -2 9 -2 -1 -13 -4 -24 -6z"/>
<path d="M5328 8583 c7 -3 16 -2 19 1 4 3 -2 6 -13 5 -11 0 -14 -3 -6 -6z"/>
<path d="M8115 8558 c-2 -7 -3 -128 -2 -268 l2 -255 50 1 c117 2 460 16 463
19 10 10 -12 45 -36 56 -20 11 -28 23 -30 49 -2 19 -27 75 -56 125 -29 49 -70
121 -92 159 -77 135 -55 121 -182 124 -85 2 -113 -1 -117 -10z m235 -58 c0 -5
-4 -10 -10 -10 -5 0 -10 5 -10 10 0 6 5 10 10 10 6 0 10 -4 10 -10z m-80 -239
c0 -12 -20 -25 -27 -18 -7 7 6 27 18 27 5 0 9 -4 9 -9z"/>
<path d="M5350 8550 c0 -5 5 -10 10 -10 6 0 10 5 10 10 0 6 -4 10 -10 10 -5 0
-10 -4 -10 -10z"/>
<path d="M5287 8535 c7 -19 30 -26 30 -10 0 8 -8 16 -18 18 -11 3 -16 0 -12
-8z"/>
<path d="M5395 8540 c4 -6 11 -8 16 -5 14 9 11 15 -7 15 -8 0 -12 -5 -9 -10z"/>
<path d="M5238 8533 c-26 -6 -22 -18 7 -19 14 -1 25 2 25 6 0 12 -12 17 -32
13z"/>
<path d="M5445 8533 c-37 -9 -38 -22 -3 -20 24 1 34 6 31 15 -3 6 -6 11 -7 11
0 -1 -10 -3 -21 -6z"/>
<path d="M5264 8479 c-3 -5 2 -9 11 -9 10 0 13 -5 9 -12 -4 -7 -4 -10 1 -6 4
4 14 3 21 -3 9 -8 11 -5 7 10 -5 21 -39 35 -49 20z"/>
<path d="M5208 8473 c7 -3 16 -2 19 1 4 3 -2 6 -13 5 -11 0 -14 -3 -6 -6z"/>
<path d="M5235 8449 c-11 -17 1 -21 15 -4 8 9 8 15 2 15 -6 0 -14 -5 -17 -11z"/>
<path d="M5175 8440 c-4 -6 3 -10 14 -10 25 0 27 6 6 13 -8 4 -17 2 -20 -3z"/>
<path d="M5255 8430 c-8 -13 -1 -24 14 -19 6 3 7 10 2 18 -6 10 -10 10 -16 1z"/>
<path d="M5142 8392 c-9 -3 -8 -7 2 -18 8 -8 19 -14 25 -14 5 0 15 -16 21 -35
11 -33 40 -49 40 -22 1 7 6 6 14 -5 12 -16 14 -16 31 0 17 16 17 16 12 0 -3
-10 -2 -20 3 -23 6 -4 10 -2 10 3 0 14 43 20 70 10 18 -6 21 -5 16 7 -3 8 -1
15 4 15 6 0 10 -5 10 -11 0 -5 5 -7 11 -3 25 15 -13 26 -83 25 -61 -1 -167 16
-116 18 9 1 18 6 20 12 3 9 9 9 25 0 29 -15 187 -15 177 0 -3 6 -17 9 -30 6
-15 -2 -23 0 -22 7 4 14 -11 16 -41 5 -13 -5 -26 -8 -28 -5 -3 2 6 8 19 12
l23 8 -25 6 c-13 3 -45 3 -70 0 -25 -3 -59 -3 -75 0 -17 4 -36 5 -43 2z m143
-22 c3 -5 1 -10 -4 -10 -6 0 -11 5 -11 10 0 6 2 10 4 10 3 0 8 -4 11 -10z"/>
<path d="M5438 8383 c7 -3 16 -2 19 1 4 3 -2 6 -13 5 -11 0 -14 -3 -6 -6z"/>
<path d="M5520 8379 c0 -5 5 -7 10 -4 6 3 10 8 10 11 0 2 -4 4 -10 4 -5 0 -10
-5 -10 -11z"/>
<path d="M5550 8380 c0 -5 4 -10 9 -10 6 0 13 5 16 10 3 6 -1 10 -9 10 -9 0
-16 -4 -16 -10z"/>
<path d="M5633 8383 c9 -2 23 -2 30 0 6 3 -1 5 -18 5 -16 0 -22 -2 -12 -5z"/>
<path d="M5680 8379 c0 -5 5 -7 10 -4 6 3 10 8 10 11 0 2 -4 4 -10 4 -5 0 -10
-5 -10 -11z"/>
<path d="M5540 8350 c0 -5 5 -10 11 -10 5 0 7 5 4 10 -3 6 -8 10 -11 10 -2 0
-4 -4 -4 -10z"/>
<path d="M5580 8350 c0 -5 12 -10 28 -9 24 0 25 1 7 9 -27 12 -35 12 -35 0z"/>
<path d="M5458 8343 c6 -2 18 -2 25 0 6 3 1 5 -13 5 -14 0 -19 -2 -12 -5z"/>
<path d="M5436 8305 c4 -8 12 -15 20 -15 19 0 18 16 -2 24 -22 9 -24 8 -18 -9z"/>
<path d="M5510 8311 c0 -10 19 -25 25 -20 1 2 -3 10 -11 17 -8 7 -14 8 -14 3z"/>
<path d="M5556 8306 c7 -18 44 -22 44 -5 0 5 -5 7 -10 4 -6 -4 -18 -1 -26 6
-12 10 -13 9 -8 -5z"/>
<path d="M6090 8299 c0 -5 5 -7 10 -4 6 3 10 8 10 11 0 2 -4 4 -10 4 -5 0 -10
-5 -10 -11z"/>
<path d="M5246 8230 c15 -24 24 -29 51 -28 18 1 38 7 44 15 13 14 -1 18 -16 4
-13 -11 -77 7 -70 20 4 5 14 7 23 5 10 -3 31 -2 47 3 26 8 21 9 -33 10 l-63 1
17 -30z"/>
<path d="M5373 8253 c9 -2 25 -2 35 0 9 3 1 5 -18 5 -19 0 -27 -2 -17 -5z"/>
<path d="M5578 8253 c6 -2 18 -2 25 0 6 3 1 5 -13 5 -14 0 -19 -2 -12 -5z"/>
<path d="M5668 8253 c7 -3 16 -2 19 1 4 3 -2 6 -13 5 -11 0 -14 -3 -6 -6z"/>
<path d="M5401 8216 c-8 -9 -8 -16 -2 -20 6 -4 15 3 21 14 12 23 -2 27 -19 6z"/>
<path d="M5360 8210 c0 -5 5 -10 11 -10 5 0 7 5 4 10 -3 6 -8 10 -11 10 -2 0
-4 -4 -4 -10z"/>
<path d="M5528 8213 c7 -3 16 -2 19 1 4 3 -2 6 -13 5 -11 0 -14 -3 -6 -6z"/>
<path d="M5320 8173 c0 -12 58 -14 65 -3 4 6 -9 10 -29 10 -20 0 -36 -3 -36
-7z"/>
<path d="M5398 8156 c-14 -19 -24 -23 -53 -19 -33 3 -35 2 -23 -17 7 -11 19
-20 26 -20 7 0 10 -4 7 -10 -4 -6 1 -7 11 -3 13 5 16 2 12 -9 -5 -11 -1 -14
18 -10 13 2 24 9 24 14 0 6 -7 8 -15 4 -8 -3 -15 -1 -15 4 0 11 -1 11 86 14
33 2 67 7 74 11 8 5 11 4 7 -2 -4 -6 29 -10 91 -9 84 1 97 3 100 19 4 18 -13
24 -23 7 -3 -5 -11 -10 -16 -10 -6 0 -8 4 -5 9 3 4 -30 9 -73 10 -47 1 -82 -3
-86 -9 -3 -6 -10 -8 -15 -5 -4 3 -29 7 -55 10 -58 6 -70 12 -54 31 6 8 8 14 3
14 -5 0 -17 -11 -26 -24z"/>
<path d="M5455 8170 c-19 -8 -19 -9 2 -9 12 -1 25 4 28 9 7 12 -2 12 -30 0z"/>
<path d="M5524 8165 c12 -12 20 -14 36 -5 29 15 25 20 -16 20 -32 0 -34 -2
-20 -15z"/>
<path d="M5590 8172 c0 -5 14 -9 30 -9 17 0 30 4 30 9 0 4 -13 8 -30 8 -16 0
-30 -4 -30 -8z"/>
<path d="M5660 8169 c0 -5 5 -7 10 -4 6 3 10 8 10 11 0 2 -4 4 -10 4 -5 0 -10
-5 -10 -11z"/>
<path d="M5715 8170 c-3 -5 -1 -10 4 -10 6 0 11 5 11 10 0 6 -2 10 -4 10 -3 0
-8 -4 -11 -10z"/>
<path d="M5775 8170 c-3 -5 -2 -10 4 -10 5 0 13 5 16 10 3 6 2 10 -4 10 -5 0
-13 -4 -16 -10z"/>
<path d="M5815 8170 c-3 -6 1 -7 9 -4 18 7 21 14 7 14 -6 0 -13 -4 -16 -10z"/>
<path d="M5760 8123 c0 -7 11 -13 26 -13 15 0 24 5 22 12 -6 16 -48 18 -48 1z"/>
<path d="M5910 8128 c0 -6 -7 -8 -15 -4 -9 3 -15 0 -15 -9 0 -16 25 -21 34 -6
3 5 15 7 26 4 11 -3 20 -1 20 5 0 5 -11 12 -25 14 -14 3 -25 1 -25 -4z"/>
<path d="M6050 8120 c0 -5 5 -10 11 -10 5 0 7 5 4 10 -3 6 -8 10 -11 10 -2 0
-4 -4 -4 -10z"/>
<path d="M5830 8110 c0 -5 7 -7 15 -4 8 4 15 8 15 10 0 2 -7 4 -15 4 -8 0 -15
-4 -15 -10z"/>
<path d="M5980 8109 c0 -5 5 -7 10 -4 6 3 10 8 10 11 0 2 -4 4 -10 4 -5 0 -10
-5 -10 -11z"/>
<path d="M5483 8082 c-8 -5 1 -8 22 -8 21 0 30 3 22 8 -6 4 -16 8 -22 8 -5 0
-16 -4 -22 -8z"/>
<path d="M5590 8079 c-29 -8 -19 -10 55 -10 81 0 89 0 83 7 -10 9 -110 12
-138 3z"/>
<path d="M5740 8079 c0 -5 5 -7 10 -4 6 3 10 8 10 11 0 2 -4 4 -10 4 -5 0 -10
-5 -10 -11z"/>
<path d="M5430 8070 c0 -5 4 -10 9 -10 6 0 13 5 16 10 3 6 -1 10 -9 10 -9 0
-16 -4 -16 -10z"/>
<path d="M5454 8049 c-3 -6 -15 -9 -25 -6 -10 3 -22 0 -25 -5 -5 -7 4 -9 25
-6 18 3 34 1 37 -4 6 -10 24 -1 24 12 0 13 -29 20 -36 9z"/>
<path d="M5541 8051 c-8 -6 -9 -11 -3 -15 6 -3 14 -1 17 5 9 14 2 20 -14 10z"/>
<path d="M5576 8041 c-3 -5 1 -11 9 -15 9 -3 15 0 15 9 0 16 -16 20 -24 6z"/>
<path d="M5630 8036 c0 -9 8 -12 25 -8 14 2 25 8 25 13 0 5 -11 9 -25 9 -14 0
-25 -6 -25 -14z"/>
<path d="M5690 8040 c0 -5 12 -10 26 -10 14 0 23 4 19 10 -3 6 -15 10 -26 10
-10 0 -19 -4 -19 -10z"/>
<path d="M5805 8040 c-3 -6 4 -9 19 -8 13 1 22 6 20 10 -7 11 -32 10 -39 -2z"/>
<path d="M5926 8041 c-3 -5 3 -11 14 -14 21 -5 32 1 24 14 -7 12 -31 11 -38 0z"/>
<path d="M5493 7992 c-25 -4 -30 -17 -10 -25 14 -5 53 19 40 25 -4 2 -18 2
-30 0z"/>
<path d="M5605 7992 c-57 -5 -63 -17 -10 -20 24 -1 47 3 51 9 8 14 6 15 -41
11z"/>
<path d="M5430 7980 c0 -5 5 -10 10 -10 6 0 10 5 10 10 0 6 -4 10 -10 10 -5 0
-10 -4 -10 -10z"/>
<path d="M5660 7982 c0 -4 9 -8 20 -9 11 -1 20 2 20 8 0 5 -9 9 -20 9 -11 0
-20 -4 -20 -8z"/>
<path d="M5717 7983 c-4 -3 1 -12 11 -20 15 -11 15 -12 1 -7 -10 3 -20 1 -23
-5 -4 -6 9 -9 33 -8 22 1 36 4 31 7 -5 3 -5 12 -1 19 5 7 13 11 19 7 6 -3 13
-2 17 4 10 16 -31 12 -45 -5 -13 -15 -35 -11 -25 6 7 10 -8 12 -18 2z"/>
<path d="M5531 7944 c0 -11 3 -14 6 -6 3 7 2 16 -1 19 -3 4 -6 -2 -5 -13z"/>
<path d="M5493 7904 c-3 -8 -2 -19 3 -24 11 -11 234 -19 240 -8 3 4 11 5 19 1
8 -3 15 0 15 6 0 6 -7 11 -16 11 -10 0 -14 6 -10 15 6 17 -29 22 -39 5 -3 -5
2 -10 11 -10 14 0 15 -3 7 -11 -16 -16 -47 -3 -39 16 3 9 -1 15 -10 15 -10 0
-14 -6 -10 -15 4 -11 -1 -15 -19 -15 -29 0 -34 16 -7 24 12 3 -40 1 -65 -4 -1
0 0 -7 3 -15 5 -11 0 -13 -23 -6 -15 4 -34 6 -42 3 -9 -3 -11 0 -7 7 5 7 17 9
28 5 14 -4 18 -2 14 5 -11 16 -46 13 -53 -5z"/>
<path d="M5897 7904 c3 -9 -2 -14 -15 -14 -12 0 -24 -4 -27 -10 -7 -11 1 -12
32 -4 26 7 37 30 18 38 -9 3 -12 0 -8 -10z"/>
<path d="M6080 7910 c-20 -12 -10 -19 14 -10 11 3 15 9 10 13 -6 3 -16 2 -24
-3z"/>
<path d="M6145 7910 c-3 -5 -1 -10 4 -10 6 0 11 5 11 10 0 6 -2 10 -4 10 -3 0
-8 -4 -11 -10z"/>
<path d="M5970 7904 c0 -6 -10 -16 -22 -21 -20 -9 -15 -11 27 -11 28 -1 57 3
65 8 10 6 4 8 -19 8 -18 -1 -37 5 -42 13 -5 8 -9 9 -9 3z"/>
<path d="M6096 7881 c-3 -5 0 -11 8 -14 15 -6 26 1 26 15 0 11 -27 10 -34 -1z"/>
<path d="M5530 7850 c-13 -8 -13 -10 1 -10 10 0 20 -11 23 -25 6 -22 9 -24 27
-14 11 6 23 8 27 5 3 -3 1 -6 -4 -6 -5 -1 2 -7 15 -14 21 -12 30 -12 60 2 45
21 46 21 39 28 -3 3 -15 0 -26 -7 -12 -7 -27 -9 -38 -4 -11 4 -25 7 -32 6 -11
-2 -11 2 -1 21 9 18 9 21 -1 11 -7 -6 -20 -9 -29 -6 -12 4 -13 3 -2 -5 7 -5 9
-12 4 -15 -11 -7 -27 3 -39 25 -7 12 -14 14 -24 8z m120 -60 c0 -5 -7 -7 -15
-4 -8 4 -15 8 -15 10 0 2 7 4 15 4 8 0 15 -4 15 -10z"/>
<path d="M5900 7844 c0 -8 5 -12 10 -9 6 4 8 11 5 16 -9 14 -15 11 -15 -7z"/>
<path d="M5670 7846 c0 -2 7 -6 15 -10 8 -3 15 -1 15 4 0 6 -7 10 -15 10 -8 0
-15 -2 -15 -4z"/>
<path d="M5715 7840 c3 -5 8 -10 11 -10 2 0 4 5 4 10 0 6 -5 10 -11 10 -5 0
-7 -4 -4 -10z"/>
<path d="M5755 7833 c2 -7 0 -13 -5 -13 -6 0 -10 -5 -10 -11 0 -6 7 -9 15 -5
8 3 15 2 15 -3 0 -11 61 -4 74 9 5 5 11 18 12 27 2 14 -2 12 -17 -7 -14 -17
-22 -21 -26 -12 -2 6 -9 12 -14 12 -6 0 -7 -4 -4 -10 3 -6 -1 -7 -9 -4 -23 9
-20 12 17 23 32 10 32 10 -11 8 -29 -1 -41 -6 -37 -14z"/>
<path d="M5935 7840 c-3 -5 -2 -10 4 -10 5 0 13 5 16 10 3 6 2 10 -4 10 -5 0
-13 -4 -16 -10z"/>
<path d="M6045 7840 c3 -5 11 -10 16 -10 6 0 7 5 4 10 -3 6 -11 10 -16 10 -6
0 -7 -4 -4 -10z"/>
<path d="M6005 7810 c-3 -5 -1 -10 4 -10 6 0 11 5 11 10 0 6 -2 10 -4 10 -3 0
-8 -4 -11 -10z"/>
<path d="M5623 7751 c-13 -3 -19 -10 -15 -17 10 -14 52 -13 52 3 0 17 -11 21
-37 14z"/>
<path d="M5677 7728 c-3 -10 -14 -18 -26 -18 -12 0 -21 -4 -21 -10 0 -5 7 -10
15 -10 8 0 12 -6 9 -13 -7 -20 32 -50 56 -44 14 3 20 1 17 -6 -2 -7 -11 -11
-20 -11 -13 1 -14 -2 -4 -17 7 -11 13 -15 15 -10 2 6 9 8 17 5 7 -3 16 -1 19
5 4 6 13 8 21 4 9 -3 15 1 15 11 0 20 14 21 29 2 14 -16 54 -9 44 8 -4 6 0 6
9 -2 13 -10 17 -10 21 3 4 9 13 12 24 8 16 -5 16 -4 -1 9 -10 8 -16 20 -12 26
4 7 -2 10 -15 9 -12 -1 -24 -9 -26 -18 -5 -17 -43 -15 -43 2 0 5 6 6 13 4 7
-3 18 8 25 25 8 17 21 30 32 30 9 0 23 7 30 15 11 13 -4 14 -113 13 -112 -2
-126 -4 -130 -20z m183 -20 c0 -5 -4 -6 -10 -3 -5 3 -10 0 -10 -8 0 -21 -48
-28 -66 -9 -9 8 -31 17 -50 19 -27 3 -32 0 -28 -12 4 -8 2 -15 -4 -15 -12 0
-24 28 -14 34 9 5 58 9 107 6 35 -1 37 -3 18 -10 -26 -11 -30 -20 -9 -20 21 0
47 30 39 43 -4 7 1 6 10 -2 9 -7 17 -18 17 -23z m-113 -24 c-3 -3 -12 -4 -19
-1 -8 3 -5 6 6 6 11 1 17 -2 13 -5z m63 -25 c0 -4 -26 -7 -57 -7 -44 1 -50 2
-28 7 37 9 85 8 85 0z m80 -9 c0 -5 -4 -10 -10 -10 -5 0 -10 5 -10 10 0 6 5
10 10 10 6 0 10 -4 10 -10z"/>
<path d="M5940 7732 c0 -10 7 -12 24 -8 18 4 28 1 35 -11 7 -14 9 -12 8 10 -2
24 -6 27 -34 25 -21 -1 -33 -7 -33 -16z"/>
<path d="M6050 7739 c0 -5 5 -7 10 -4 6 3 10 8 10 11 0 2 -4 4 -10 4 -5 0 -10
-5 -10 -11z"/>
<path d="M6443 7743 c-15 -5 -17 -23 -4 -23 5 0 11 7 15 15 3 8 4 15 3 14 -1
0 -8 -3 -14 -6z"/>
<path d="M6250 7730 c0 -5 5 -10 11 -10 5 0 7 5 4 10 -3 6 -8 10 -11 10 -2 0
-4 -4 -4 -10z"/>
<path d="M6050 7700 c0 -5 5 -10 10 -10 6 0 10 5 10 10 0 6 -4 10 -10 10 -5 0
-10 -4 -10 -10z"/>
<path d="M6040 7670 c0 -5 4 -10 9 -10 6 0 13 5 16 10 3 6 -1 10 -9 10 -9 0
-16 -4 -16 -10z"/>
<path d="M6020 7640 c0 -5 7 -10 16 -10 8 0 12 5 9 10 -3 6 -10 10 -16 10 -5
0 -9 -4 -9 -10z"/>
<path d="M6175 7640 c-3 -5 -1 -10 4 -10 6 0 11 5 11 10 0 6 -2 10 -4 10 -3 0
-8 -4 -11 -10z"/>
<path d="M5948 7633 c6 -2 18 -2 25 0 6 3 1 5 -13 5 -14 0 -19 -2 -12 -5z"/>
<path d="M5996 7562 c-3 -5 1 -9 9 -9 8 0 12 4 9 9 -3 4 -7 8 -9 8 -2 0 -6 -4
-9 -8z"/>
<path d="M5740 7549 c0 -11 21 -15 52 -11 42 6 34 20 -12 18 -22 0 -40 -4 -40
-7z"/>
<path d="M5834 7551 c-10 -11 -2 -41 11 -41 8 0 15 5 15 11 0 5 -4 7 -10 4 -5
-3 -10 -1 -10 5 0 6 6 10 13 9 23 -3 37 1 37 10 0 9 -47 10 -56 2z"/>
<path d="M5915 7552 c-15 -11 -15 -42 1 -42 8 0 11 6 7 16 -3 9 0 20 8 25 8 5
10 9 4 9 -5 0 -14 -4 -20 -8z"/>
<path d="M6060 7550 c0 -5 5 -10 11 -10 5 0 7 5 4 10 -3 6 -8 10 -11 10 -2 0
-4 -4 -4 -10z"/>
<path d="M6030 7539 c0 -5 5 -7 10 -4 6 3 10 8 10 11 0 2 -4 4 -10 4 -5 0 -10
-5 -10 -11z"/>
<path d="M5954 7519 c-3 -5 9 -9 25 -9 17 0 31 2 31 4 0 8 -51 13 -56 5z"/>
<path d="M5903 7436 c-6 -8 -8 -19 -3 -27 10 -16 15 -12 24 19 8 24 -3 29 -21
8z"/>
<path d="M5838 7415 c12 -16 19 -19 28 -11 16 14 10 23 -20 28 -24 5 -24 4 -8
-17z"/>
<path d="M5903 7383 c-22 -4 -22 -6 -7 -29 9 -13 21 -24 26 -24 5 0 2 8 -8 18
-16 16 -16 17 -1 20 9 2 17 8 17 13 0 5 -1 8 -2 8 -2 -1 -13 -4 -25 -6z"/>
<path d="M5966 7342 c-3 -5 1 -9 9 -9 8 0 15 4 15 9 0 4 -4 8 -9 8 -6 0 -12
-4 -15 -8z"/>
<path d="M6035 7340 c-3 -5 -1 -10 4 -10 6 0 11 5 11 10 0 6 -2 10 -4 10 -3 0
-8 -4 -11 -10z"/>
<path d="M5916 7308 c3 -5 10 -6 15 -3 13 9 11 12 -6 12 -8 0 -12 -4 -9 -9z"/>
<path d="M5967 7309 c7 -7 15 -10 18 -7 3 3 -2 9 -12 12 -14 6 -15 5 -6 -5z"/>
<path d="M5990 7280 c-8 -5 -10 -10 -5 -10 6 0 17 5 25 10 8 5 11 10 5 10 -5
0 -17 -5 -25 -10z"/>
<path d="M8621 7148 c6 -13 47 -86 91 -163 101 -177 88 -154 151 -265 31 -52
69 -120 85 -150 18 -34 36 -54 46 -54 9 1 16 -2 16 -7 0 -5 -4 -9 -9 -9 -9 0
68 -149 92 -179 8 -10 38 -12 117 -11 134 3 130 4 130 -24 0 -28 -13 -32 -121
-35 -41 -1 -75 -4 -77 -5 -5 -6 121 -216 130 -216 5 0 6 -6 1 -12 -4 -8 4 -6
18 4 25 16 27 16 51 -9 l26 -25 -5 28 c-3 24 -2 26 7 12 7 -12 20 -16 41 -14
16 2 32 0 35 -5 3 -5 -2 -9 -11 -9 -19 0 -16 -21 4 -28 7 -2 15 5 18 17 3 12
10 21 15 21 5 0 7 -4 4 -9 -3 -4 1 -17 9 -27 13 -18 14 -18 37 4 17 17 19 21
6 16 -10 -3 -18 -11 -18 -17 0 -7 -5 -6 -12 2 -11 10 -8 16 11 32 13 11 31 17
38 15 8 -3 11 -1 8 4 -3 6 -1 10 5 10 17 0 23 -26 10 -50 -11 -20 -10 -20 24
-6 19 8 37 12 39 9 3 -3 15 -2 27 2 14 4 19 12 16 22 -6 14 -3 13 18 -1 32
-21 39 -20 34 2 -4 15 0 18 24 16 32 -2 52 -14 25 -14 -23 0 -22 -20 1 -21 10
0 12 -3 5 -6 -18 -7 -16 -23 2 -23 9 0 15 10 16 23 0 13 3 16 6 8 6 -15 43
-54 43 -45 0 3 -10 20 -22 36 -12 17 -42 70 -66 117 -25 47 -56 101 -70 119
l-24 32 -139 0 -138 0 -5 43 c-3 23 -8 143 -11 265 l-6 224 -63 106 c-35 59
-72 123 -83 142 -10 19 -32 56 -48 83 l-30 47 -268 0 -268 0 12 -22z m442
-504 c9 -10 -4 -34 -19 -34 -8 0 -14 6 -14 13 0 22 19 35 33 21z"/>
<path d="M10794 7118 c-18 -29 -49 -84 -69 -123 -21 -38 -41 -72 -45 -75 -15
-10 -70 -123 -64 -131 3 -5 37 -9 75 -9 65 0 73 -2 100 -29 28 -28 29 -33 29
-118 0 -64 -5 -98 -18 -123 -28 -57 -47 -61 -230 -58 l-163 3 -14 -25 c-8 -14
-39 -68 -69 -120 -30 -52 -65 -115 -78 -140 -13 -25 -37 -67 -52 -95 -20 -35
-22 -43 -8 -27 14 15 22 18 25 10 4 -8 6 -7 6 4 1 23 21 34 32 17 6 -10 9 -8
9 9 0 28 30 30 47 3 8 -14 23 -19 45 -19 18 1 27 3 20 5 -6 3 -10 9 -6 14 9
16 24 10 34 -13 8 -21 9 -21 10 -3 0 11 12 28 25 38 20 14 24 15 19 2 -3 -8
-1 -15 6 -15 7 0 9 -8 5 -20 -4 -12 -2 -20 5 -20 6 0 9 4 6 9 -3 4 3 16 14 26
11 10 20 13 20 7 0 -6 -3 -12 -7 -15 -5 -2 -2 -2 5 0 8 1 20 3 28 3 9 0 12 5
9 10 -10 16 2 12 21 -7 16 -16 17 -16 12 -1 -4 10 -1 19 8 22 8 3 13 2 10 -3
-7 -11 22 -23 35 -15 5 3 9 1 9 -4 0 -5 22 -8 49 -8 l49 1 65 110 65 110 6
150 c4 83 9 188 12 235 l6 86 32 -4 31 -4 -8 -146 c-4 -81 -6 -156 -5 -167 2
-14 18 7 52 65 27 47 63 110 81 140 17 30 62 109 100 175 37 66 92 162 121
213 30 51 54 97 54 101 0 12 -114 19 -330 21 l-195 1 -31 -53z m186 -59 c0 -5
-4 -9 -10 -9 -5 0 -10 7 -10 16 0 8 5 12 10 9 6 -3 10 -10 10 -16z m-560 -724
c0 -8 -7 -15 -15 -15 -16 0 -20 12 -8 23 11 12 23 8 23 -8z"/>
<path d="M7393 7152 c-13 -2 -23 -8 -23 -14 0 -5 6 -8 14 -5 7 3 18 1 24 -5 6
-6 12 -6 16 1 4 6 16 11 26 11 10 0 21 4 25 9 3 6 -6 6 -24 1 -17 -4 -31 -5
-33 -2 -2 4 -13 6 -25 4z"/>
<path d="M7770 7151 c0 -13 27 -21 46 -14 13 5 13 7 2 14 -17 11 -48 11 -48 0z"/>
<path d="M6065 7140 c3 -5 19 -8 36 -6 22 3 29 0 25 -10 -7 -18 8 -18 24 0 6
8 17 13 25 10 7 -3 15 -1 18 3 3 5 -26 10 -64 11 -44 1 -68 -1 -64 -8z"/>
<path d="M7568 7143 c7 -3 16 -2 19 1 4 3 -2 6 -13 5 -11 0 -14 -3 -6 -6z"/>
<path d="M7938 7143 c6 -2 18 -2 25 0 6 3 1 5 -13 5 -14 0 -19 -2 -12 -5z"/>
<path d="M7988 7143 c7 -3 16 -2 19 1 4 3 -2 6 -13 5 -11 0 -14 -3 -6 -6z"/>
<path d="M7220 7132 c0 -5 7 -9 15 -9 8 0 12 4 9 9 -3 4 -9 8 -15 8 -5 0 -9
-4 -9 -8z"/>
<path d="M7480 7123 c0 -11 3 -14 8 -7 4 6 14 14 22 17 10 4 8 6 -7 6 -16 1
-23 -5 -23 -16z"/>
<path d="M6166 7103 c-3 -3 -6 -9 -6 -12 0 -9 77 -7 87 2 4 5 -6 8 -22 6 -17
-2 -35 0 -41 4 -6 3 -14 4 -18 0z"/>
<path d="M6085 7090 c-3 -6 1 -7 9 -4 18 7 21 14 7 14 -6 0 -13 -4 -16 -10z"/>
<path d="M6125 7090 c-3 -5 -1 -10 4 -10 6 0 11 5 11 10 0 6 -2 10 -4 10 -3 0
-8 -4 -11 -10z"/>
<path d="M15515 7050 c-3 -5 -1 -10 4 -10 6 0 11 5 11 10 0 6 -2 10 -4 10 -3
0 -8 -4 -11 -10z"/>
<path d="M10507 6623 l-64 -108 141 -3 c170 -3 166 -6 166 115 0 99 -5 103
-109 103 l-70 0 -64 -107z"/>
<path d="M9440 6612 c0 -51 0 -52 30 -52 l31 0 -27 48 c-15 26 -29 49 -31 51
-2 2 -3 -19 -3 -47z"/>
<path d="M9445 6413 c4 -54 8 -98 9 -98 0 0 43 2 93 5 l93 5 -56 93 -55 92
-45 0 -46 0 7 -97z"/>
<path d="M10430 6089 c0 -5 5 -7 10 -4 6 3 10 8 10 11 0 2 -4 4 -10 4 -5 0
-10 -5 -10 -11z"/>
<path d="M10155 6009 c-11 -16 -1 -19 13 -3 7 8 8 14 3 14 -5 0 -13 -5 -16
-11z"/>
<path d="M9740 5990 c0 -5 5 -10 10 -10 6 0 10 5 10 10 0 6 -4 10 -10 10 -5 0
-10 -4 -10 -10z"/>
<path d="M9290 5981 c0 -6 5 -13 10 -16 6 -3 10 1 10 9 0 9 -4 16 -10 16 -5 0
-10 -4 -10 -9z"/>
</g>
</svg>
